<svg width="50" height="33" viewBox="0 0 50 33" fill="none" xmlns="http://www.w3.org/2000/svg">
<path fill-rule="evenodd" clip-rule="evenodd" d="M27.5628 5.56611C6.90679 14.7321 8.99679 14.1111 6.20079 11.9121C3.53279 9.81411 1.02779 9.42111 0.0807875 10.9521C-0.248212 11.4861 0.457788 14.1921 1.65079 16.9661C3.20479 20.5771 4.52279 22.1851 6.29579 22.6301C7.80479 23.0091 11.6918 22.2571 16.2608 20.7021L23.7518 18.1531L23.1598 20.3171C21.9338 24.8091 21.3158 32.9821 22.2028 32.9821C24.7488 32.9821 27.6308 29.2491 31.1088 21.4451C34.9528 12.8171 34.9628 12.8061 41.6848 9.42011C45.3858 7.55711 48.7438 5.49811 49.1478 4.84511C50.1758 3.18111 45.9138 -0.0218873 42.7018 0.000112748C41.2508 0.0111127 34.4378 2.51511 27.5628 5.56611ZM10.2298 2.64911C8.86379 4.01411 9.64779 5.60111 12.5298 7.30311C15.3998 8.99911 15.6378 8.98511 19.7698 6.87611L24.0428 4.69711L19.5528 3.35511C14.6118 1.87811 11.2548 1.62311 10.2298 2.64911Z" fill="white"/>
</svg>
