<svg width="57" height="49" viewBox="0 0 57 49" fill="none" xmlns="http://www.w3.org/2000/svg">
<path fill-rule="evenodd" clip-rule="evenodd" d="M27.0983 0.307666C26.7336 0.476783 26.2379 0.8303 25.9966 1.09311C25.7553 1.35592 20.0935 11.2081 13.4149 22.9869C0.159109 46.3657 0.78212 45.1356 1.39022 46.7315C1.71307 47.5791 2.52436 48.4621 3.26803 48.7754C3.70807 48.9608 8.11987 49 28.507 49C48.8471 49 53.307 48.9605 53.7461 48.7762C54.5018 48.4591 55.4709 47.317 55.6963 46.4777C55.8019 46.0851 55.8533 45.454 55.8107 45.0749C55.7512 44.5463 52.9097 39.4065 43.5949 22.9784C36.9188 11.2042 31.2591 1.35592 31.0176 1.09311C30.4197 0.442063 29.4042 0 28.507 0C28.0968 0 27.4629 0.138383 27.0983 0.307666ZM9.83079 2.31946C9.42489 2.48359 9.11562 2.96868 9.11562 3.44131C9.11562 3.61408 10.1835 5.09543 11.4885 6.73327C12.7935 8.37111 13.987 9.81392 14.1408 9.93951C14.5281 10.2562 15.1961 10.2251 15.5849 9.87223C15.7694 9.70494 15.9109 9.36272 15.9109 9.08446C15.9109 8.69938 15.367 7.91011 13.4092 5.45543C12.0335 3.73004 10.8463 2.31846 10.771 2.31846C10.6959 2.31846 10.535 2.28573 10.4137 2.24586C10.2922 2.20583 10.03 2.23905 9.83079 2.31946ZM29.147 2.44306C29.3367 2.60287 34.8794 12.2279 41.4642 23.8318C49.7612 38.4533 53.4558 45.1138 53.5001 45.5289C53.5528 46.0243 53.4857 46.1895 53.1119 46.4842L52.6601 46.8404H28.507H4.35395L3.90215 46.4842C3.52824 46.1893 3.46129 46.0245 3.51449 45.5289C3.55907 45.1145 7.2683 38.4275 15.5501 23.8318C22.1344 12.2279 27.6769 2.60287 27.8668 2.44306C28.0569 2.28324 28.3449 2.15233 28.507 2.15233C28.6691 2.15233 28.957 2.28324 29.147 2.44306ZM46.3722 2.26746C46.2165 2.3075 44.9672 3.74698 43.596 5.46623C41.6456 7.91211 41.1032 8.69938 41.1032 9.08446C41.1032 9.36272 41.2447 9.70494 41.4292 9.87223C41.818 10.2251 42.4859 10.2562 42.8733 9.93951C43.0271 9.81392 44.2206 8.37111 45.5256 6.73327C46.9698 4.92067 47.8985 3.61142 47.8985 3.38765C47.8985 2.68411 47.0822 2.08505 46.3722 2.26746ZM2.59464 10.5964C2.23548 10.9941 2.24394 11.8339 2.61038 12.1625C2.76982 12.3055 4.52234 13.2288 6.50474 14.2139C9.66803 15.7862 10.1643 15.9859 10.5602 15.8463C10.8083 15.7588 11.1221 15.4896 11.2573 15.2481C11.4542 14.8964 11.4645 14.7236 11.3088 14.3814C11.1587 14.051 10.2852 13.5378 7.4647 12.1232C5.37573 11.0753 3.6126 10.2925 3.34195 10.2925C3.08174 10.2925 2.74546 10.4293 2.59464 10.5964ZM49.5094 12.1321C45.574 14.1181 45.2669 14.3731 45.7568 15.2481C45.892 15.4896 46.2058 15.7588 46.4539 15.8463C46.8498 15.9859 47.3461 15.7862 50.5093 14.2139C52.4917 13.2288 54.2443 12.3055 54.4037 12.1625C54.7852 11.8202 54.7778 10.9187 54.3906 10.5675C54.2239 10.4163 53.8697 10.2965 53.6033 10.3015C53.3314 10.3065 51.5376 11.1085 49.5094 12.1321ZM26.5303 16.3786C26.1932 16.8082 26.1867 16.971 26.1867 25.1077V33.3992L26.5936 33.8069C26.9658 34.1802 27.1283 34.2147 28.507 34.2147C29.8858 34.2147 30.0482 34.1802 30.4205 33.8069L30.8274 33.3992V25.0778V16.7563L30.4205 16.3487C30.0459 15.9731 29.8896 15.9408 28.4437 15.9408C26.945 15.9408 26.8581 15.9608 26.5303 16.3786ZM0.871619 20.5377C0.41965 20.6319 0 21.1959 0 21.7092C0 21.9172 0.149165 22.237 0.331477 22.4198C0.644226 22.7332 0.883884 22.752 4.55781 22.752C8.23174 22.752 8.4714 22.7332 8.78415 22.4198C9.20181 22.0011 9.20777 21.4077 8.79906 20.9015C8.48499 20.5125 8.45333 20.5091 4.86277 20.4847C2.87192 20.4713 1.07581 20.495 0.871619 20.5377ZM48.7701 20.5377C48.3181 20.6319 47.8985 21.1959 47.8985 21.7092C47.8985 21.9172 48.0476 22.237 48.2299 22.4198C48.5427 22.7332 48.7823 22.752 52.4563 22.752C56.1302 22.752 56.3699 22.7332 56.6826 22.4198C57.1003 22.0011 57.1062 21.4077 56.6975 20.9015C56.3834 20.5125 56.3518 20.5091 52.7612 20.4847C50.7704 20.4713 48.9743 20.495 48.7701 20.5377ZM26.7502 37.8305C26.3533 38.0961 26.1867 38.7365 26.1867 39.9958C26.1867 41.0773 26.2484 41.3919 26.5303 41.7511C26.8598 42.171 26.94 42.1888 28.507 42.1888C30.0741 42.1888 30.1543 42.171 30.4838 41.7511C30.7657 41.3919 30.8274 41.0773 30.8274 39.9958C30.8274 38.7365 30.6608 38.0961 30.2639 37.8305C30.1636 37.7634 29.373 37.7085 28.507 37.7085C27.6411 37.7085 26.8505 37.7634 26.7502 37.8305Z" fill="white"/>
</svg>
