<svg width="250" height="167" viewBox="0 0 250 167" fill="none" xmlns="http://www.w3.org/2000/svg">
<path fill-rule="evenodd" clip-rule="evenodd" d="M14.1724 0.466125H235.828C243.355 0.466125 249.516 6.3696 249.516 13.5856V153.412C249.516 160.628 243.357 166.534 235.828 166.534H14.1724C6.64675 166.534 0.486267 160.63 0.486267 153.412V13.5856C0.486267 6.3696 6.64675 0.466125 14.1724 0.466125Z" fill="#F4F4F4"/>
<path fill-rule="evenodd" clip-rule="evenodd" d="M14.1724 0.466125H235.828C243.355 0.466125 249.516 6.36961 249.516 13.5856V111.698H0.486267V13.5856C0.486267 6.36961 6.64675 0.466125 14.1724 0.466125Z" fill="black"/>
<path fill-rule="evenodd" clip-rule="evenodd" d="M14.1724 0.466125H235.828C243.355 0.466125 249.516 6.3696 249.516 13.5856V55.302H0.486267V13.5856C0.486267 6.3696 6.64675 0.466125 14.1724 0.466125Z" fill="#0072CE"/>
</svg>
