<svg width="500" height="177" viewBox="0 0 500 177" fill="none" xmlns="http://www.w3.org/2000/svg">
<g clip-path="url(#clip0_120_18)">
<path fill-rule="evenodd" clip-rule="evenodd" d="M214.446 0.378203C211.348 0.676979 199.939 1.59171 189.094 2.41016C169.565 3.8828 165.737 4.3699 138.39 8.8473C84.1704 17.727 35.2789 37.0328 15.1042 57.5294C-15.9338 89.0651 1.56334 123.038 61.1507 146.935C85.3155 156.627 124.645 166.489 156.7 170.897C225.089 180.302 314.741 177.96 375.01 165.195C439.606 151.513 481.973 130.3 495.128 105.055C500.268 95.195 500.387 82.223 495.432 72.4229C482.748 47.337 437.544 24.2095 377.827 12.2542C351.235 6.93003 344.904 5.96149 317.968 3.09126C298.863 1.05647 226.959 -0.826813 214.446 0.378203ZM411.276 25.8152C381.794 17.0544 369.379 14.5708 325.01 8.55985C306.652 6.07335 209.889 4.47186 203.883 6.55479C200.808 7.62104 200.731 7.79379 203.266 7.91698C207.92 8.14354 217.766 13.4946 219.858 16.9341C222.438 21.1764 220.753 43.654 217.308 50.9521L214.83 56.2026H195.811H176.794L177.587 53.0166C178.024 51.265 179.159 46.7876 180.11 43.0678C182.321 34.4203 180.517 32.0796 175.352 36.8926C171.356 40.6139 168.103 50.2313 169.552 54.029C170.051 55.3374 176.284 62.2546 183.403 69.4025C201.968 88.0442 203.489 92.5527 198.418 113.898C195.534 126.04 189.877 139.252 184.49 146.438C179.153 153.555 160.641 163.749 155.045 162.652C154.135 162.473 152.989 162.982 152.497 163.78C152.006 164.58 152.117 165.283 152.744 165.343C153.37 165.403 155.151 165.689 156.7 165.981C158.249 166.272 169.658 167.627 182.052 168.994C226.021 173.839 309.055 171.972 347.545 165.273C370.704 161.241 381.961 158.953 394.024 155.825C481.377 133.174 515.589 95.9497 480.876 61.3285C467.251 47.7406 442.423 35.0716 411.276 25.8152ZM126.028 66.7037C126.161 46.1801 139.276 20.9654 153.503 13.8854C161.006 10.1528 156.51 10.3214 133.461 14.6373C76.2225 25.3579 30.3929 45.0912 13.5169 66.2859C6.5253 75.0651 4.86615 80.1571 5.53939 90.7742C6.27037 102.322 12.1324 111.679 24.3056 120.73C28.9535 124.185 33.5901 127.711 34.6084 128.566C41.4141 134.272 84.9098 151.416 100.714 154.619C105.37 155.563 106.555 154.327 103.721 151.478C100.356 148.095 102.044 130.657 107.184 115.675L110.342 106.471L129.648 106.077C145.646 105.75 148.953 106.03 148.953 107.711C148.953 108.827 147.373 114.42 145.442 120.141C141.169 132.798 140.941 136.915 144.51 136.915C145.939 136.915 148.183 135.721 149.496 134.262C152.196 131.263 157.404 117.782 157.404 113.791C157.404 112.346 151.731 105.326 144.796 98.1955C125.841 78.7028 125.951 78.8869 126.028 66.7037Z" fill="#FC4141"/>
<path fill-rule="evenodd" clip-rule="evenodd" d="M270.83 31.5798C267.968 34.4571 263.837 48.3169 264.963 51.2664C265.676 53.1341 266.906 53.5136 270.137 52.8637C273.951 52.0962 274.232 52.2774 272.958 54.6719C271.779 56.8879 270.7 57.1414 266.504 56.1898C261.866 55.1378 261.501 55.2893 261.901 58.1029C262.241 60.5072 263.446 61.2521 267.556 61.5947C277.038 62.3863 279.57 59.3065 287.087 37.8442C288.579 33.5877 289.094 30.1878 289.094 30.0066C289.472 29.8579 285.99 29.4643 281.335 29.4869C275.869 29.5138 272.148 30.2544 270.83 31.5798ZM291.976 33.9303C290.89 36.4452 289.034 41.724 287.849 45.6605C286.665 49.597 285.283 53.8974 284.78 55.2185C284.048 57.1357 284.687 57.6186 287.961 57.6186C291.777 57.6186 292.297 56.9262 295.552 47.4772C297.613 41.4932 298.365 36.3105 300 35.4C302.768 33.8608 306.638 32.091 306.679 30.6679C306.69 30.2544 303.506 29.4572 300 29.3043C294.058 29.0437 293.817 29.6668 291.976 33.9303ZM312.065 30.2586C308.527 31.1975 303.325 43.1428 303.246 50.5131C303.853 54.2344 304.663 56.0168 308.979 57.3368C313.901 57.6993 315.292 57.1513 318.163 53.7189C320.025 51.4944 322.761 46.0924 324.241 41.7127C326.476 35.1014 326.621 33.3738 325.094 31.5246C323.356 29.4204 317.407 28.8426 312.065 30.2586ZM327.252 41.8231C325 48.7035 323.569 55.0047 324.073 55.8245C324.576 56.643 328.677 57.3666 333.184 57.4303L341.382 57.5464L345.063 45.8998C347.087 39.4952 349.176 33.1388 349.704 31.7766C350.487 29.7546 349.889 29.2986 346.453 29.2986C342.407 29.2986 342.093 29.7701 338.431 41.3346C336.334 47.9544 334.041 53.3706 333.335 53.3706C331.41 53.3706 331.722 51.6261 335.573 40.8942C337.51 35.4964 339.094 30.6792 339.094 30.1893C339.094 29.6993 337.351 29.3014 335.221 29.3043C331.599 29.3099 331.083 30.1199 327.252 41.8231ZM353.179 32.0796C352.475 33.5466 352.113 34.692 352.113 34.692L349.692 41.673L348.249 46.2906C348.249 46.2906 346.124 51.5241 345.632 53.5929C345.142 55.6631 344.352 58.3705 343.879 59.6109C342.608 62.9399 349.862 62.6213 351.645 59.2682C352.644 57.3934 354.176 56.8398 357.155 57.2802C360.283 57.7418 361.83 57.1018 363.548 54.6351C366.652 50.1803 371.92 33.8864 371.018 31.526C370.521 30.2218 367.544 29.5676 361.732 29.4855C354.228 29.3783 354.186 29.4847 353.19 32.0497L353.179 32.0796ZM279.417 35.3166C279.001 36.2908 277.866 39.7954 276.894 43.1046C275.924 46.4138 274.628 49.1226 274.014 49.1226C272.52 49.1226 272.601 45.7511 274.191 41.7552C274.903 39.9667 275.834 37.3868 276.259 36.0246C276.686 34.6624 277.741 33.5466 278.604 33.5466C279.468 33.5466 279.834 34.3438 279.417 35.3166ZM315.122 44.9525C313.4 49.5828 311.434 53.3706 310.753 53.3706C308.968 53.3706 309.179 52.1443 312.452 43.4855C316.094 33.8525 316.911 32.4846 317.665 34.7559C317.989 35.7329 316.844 40.3222 315.122 44.9525ZM363.038 34.4628C363.038 35.5318 357.135 52.3794 356.455 53.2531C356.203 53.5773 355.614 53.4584 355.146 52.9897C353.963 51.7988 360.156 33.5466 361.745 33.5466C362.456 33.5466 363.038 33.9587 363.038 34.4628Z" fill="black"/>
<path fill-rule="evenodd" clip-rule="evenodd" d="M290.141 76.464L264.084 152.928H301.408C307.504 152.792 309.107 151.038 311.268 147.264L333.099 89.916C334.1 86.3005 333.984 84.4032 331.69 81.42C329.031 78.1591 327.158 76.884 322.535 76.464H290.141ZM289.437 138.06L307.042 88.5C308.696 86.6135 309.792 87.7195 310.499 88.4339C310.52 88.4564 310.542 88.4785 310.563 88.5C311.268 89.208 312 90.8313 311.268 92.748L294.366 140.184C293.083 142.94 292.134 142.907 290.141 141.6C288.67 140.496 288.79 139.594 289.437 138.06Z" fill="black"/>
<path fill-rule="evenodd" clip-rule="evenodd" d="M350.704 76.464L314.084 152.22H335.211L340.141 139.476H348.592L344.366 152.22H364.789L378.873 76.464H350.704ZM345.07 124.608L357.746 100.536L353.521 124.608H345.07Z" fill="black"/>
<path d="M225.352 152.928L245.775 92.748H233.099L239.437 76.464H285.211L278.873 92.748H267.606L245.775 152.928H225.352Z" fill="black"/>
</g>
<defs>
<clipPath id="clip0_120_18">
<rect width="500" height="177" fill="white"/>
</clipPath>
</defs>
</svg>
