<svg width="150" height="210" viewBox="0 0 150 210" fill="none" xmlns="http://www.w3.org/2000/svg">
<path fill-rule="evenodd" clip-rule="evenodd" d="M61.8642 0.674737C56.1366 1.64895 46.6621 4.6656 41.8109 7.05944C25.4645 15.1256 12.3041 28.9291 5.51472 45.1281C1.73966 54.1361 -0.0147889 63.0366 9.38711e-05 73.1067C0.0241352 89.5004 4.01328 105.443 12.8994 124.662C23.5503 147.699 42.6683 175.694 65.7726 202.088C68.467 205.165 71.1888 208.122 71.8208 208.658C73.7172 210.266 75.3411 210.417 77.3892 209.176C81.1471 206.898 102.508 180.677 113.424 164.942C122.337 152.093 128.645 141.616 134.518 129.903C142.366 114.251 147.231 99.8866 149.126 86.7742C150.17 79.5546 150.301 67.7063 149.399 62.195C147.391 49.9349 143.166 39.9006 135.787 29.8709C129.42 21.2155 118.245 11.9837 108.174 7.05944C103.552 4.79989 96.6383 2.43794 91.0018 1.19402C85.0103 -0.128805 68.3353 -0.425938 61.8642 0.674737Z" fill="#FC4141"/>
</svg>
