<svg width="36" height="44" viewBox="0 0 36 44" fill="none" xmlns="http://www.w3.org/2000/svg">
<path fill-rule="evenodd" clip-rule="evenodd" d="M9.40703 0.123701C7.20561 0.589263 5.04923 1.92566 3.6919 3.66548C2.43262 5.27918 1.02953 8.81101 0.325266 12.1396C0.036723 13.5035 0 14.7151 0 22.8957V32.1148L0.674411 33.5544C1.13536 34.5383 1.68314 35.3348 2.40386 36.0694C3.45546 37.1412 5.08034 38.1293 6.19598 38.3754C6.51926 38.4468 6.78392 38.581 6.78392 38.6736C6.78392 38.7661 6.21407 39.6489 5.51759 40.6352C4.82111 41.6215 4.25126 42.6177 4.25126 42.8491C4.25126 43.0805 4.42113 43.443 4.62862 43.6544C4.97343 44.0059 5.17532 44.0337 6.96627 43.9771C8.68704 43.9227 8.97811 43.8657 9.3477 43.511C9.57926 43.2888 10.4608 42.1079 11.3065 40.8865L12.8442 38.666H18H23.1558L24.6935 40.8865C25.5392 42.1079 26.4207 43.2888 26.6523 43.511C27.0219 43.8657 27.313 43.9227 29.0337 43.9771C30.8247 44.0337 31.0266 44.0059 31.3714 43.6544C31.5789 43.443 31.7487 43.0805 31.7487 42.8491C31.7487 42.6177 31.1789 41.6215 30.4824 40.6352C29.7859 39.6489 29.2161 38.7661 29.2161 38.6736C29.2161 38.581 29.4807 38.4468 29.804 38.3754C30.9197 38.1293 32.5445 37.1412 33.5961 36.0694C34.3169 35.3348 34.8646 34.5383 35.3256 33.5544L36 32.1148V22.8957C36 14.7151 35.9633 13.5035 35.6747 12.1396C34.9019 8.48723 33.3939 4.89475 31.9322 3.22315C30.8748 2.01398 29.6463 1.17135 27.9821 0.513851L26.7739 0.0364883L18.4523 0.00348389C13.8754 -0.0145855 9.80503 0.0394383 9.40703 0.123701ZM13.1076 7.26976C13.4839 7.46373 13.8801 7.88578 14.1026 8.32959C14.6822 9.48584 15.3195 9.71189 18 9.71189C20.6732 9.71189 21.3006 9.48842 21.8815 8.32959C22.4023 7.29097 23.2122 6.90119 24.6349 7.00499C26.3949 7.13332 26.9723 7.70582 27.9458 10.2886C28.434 11.5839 28.9776 13.7825 29.1294 15.075C29.3378 16.8504 30.2273 16.7189 18 16.7189C5.77266 16.7189 6.66217 16.8504 6.87057 15.075C7.10394 13.0875 7.92289 10.3065 8.77767 8.5986C9.13767 7.87951 9.85568 7.24432 10.4925 7.08188C11.2968 6.87666 12.515 6.96406 13.1076 7.26976ZM12.3484 25.0152C13.1107 25.4888 13.6568 26.4133 13.6576 27.2316C13.6585 28.0918 13.1168 29.0852 12.4195 29.5026C11.6647 29.9544 10.3088 29.9487 9.7077 29.4914C8.88603 28.8662 8.56275 28.2603 8.56275 27.3457C8.56275 26.2787 9.0199 25.4468 9.8564 24.9908C10.6723 24.5463 11.6086 24.5553 12.3484 25.0152ZM26.1436 24.9908C26.97 25.4413 27.4372 26.2804 27.4372 27.3142C27.4372 28.7522 26.365 29.8408 24.9487 29.8408C23.48 29.8408 22.3408 28.6869 22.3424 27.2008C22.3437 25.9251 23.6106 24.6494 24.8773 24.6481C25.227 24.6477 25.7968 24.8018 26.1436 24.9908Z" fill="white"/>
</svg>
