<svg width="72" height="57" viewBox="0 0 72 57" fill="none" xmlns="http://www.w3.org/2000/svg">
<path fill-rule="evenodd" clip-rule="evenodd" d="M32.0008 4.70086L32.0616 9.40173H36.0001H39.9386L39.9993 4.70086L40.0603 0H36.0001H31.9398L32.0008 4.70086ZM21.7412 12.01C20.8542 12.2823 20.256 12.8654 19.7692 13.9327C19.3963 14.7501 19.3554 15.5357 19.3509 21.9427C19.3468 27.8264 19.3983 29.0264 19.6506 28.9288C19.8183 28.864 23.439 26.2888 27.6964 23.206C31.954 20.1231 35.6074 17.5556 35.8149 17.5004C36.0501 17.4378 39.1837 19.5527 44.1244 23.1079C48.4869 26.2471 52.1961 28.8697 52.3669 28.9356C52.6277 29.0364 52.6664 27.8656 52.6095 21.6074C52.5433 14.3262 52.5305 14.1434 52.0412 13.4529C51.766 13.0643 51.2596 12.5546 50.9159 12.3201C50.3225 11.915 49.591 11.8917 36.3377 11.8532C28.6632 11.831 22.0947 11.9015 21.7412 12.01ZM23.0596 29.1236C16.8707 33.5524 11.7275 37.256 11.6303 37.3539C11.5331 37.4517 12.5798 41.1372 13.9565 45.5438C16.3171 53.0994 16.4364 53.5726 16.0529 53.8549C15.3237 54.3918 13.8649 54.6499 12.1441 54.5463C10.8241 54.467 10.1618 54.2915 9.10584 53.741C8.36315 53.3538 7.29976 52.724 6.74275 52.3411C6.18573 51.9585 5.08633 51.4431 4.29976 51.1959C2.70073 50.6937 0.6723 50.6046 0.261122 51.0185C-0.0870406 51.369 -0.0870406 52.3898 0.261122 52.7403C0.409659 52.8898 0.907034 53.0122 1.36637 53.0122C2.66405 53.0122 4.80929 53.7815 6.0327 54.6857C9.07051 56.9301 12.4587 57.5524 15.9541 56.5073C16.5383 56.3329 17.667 55.7649 18.4623 55.2455C20.6123 53.8411 22.0612 53.2414 23.6692 53.0903C25.611 52.9077 27.3287 53.4254 29.4926 54.8452C31.8597 56.3984 33.4153 56.9172 35.775 56.94C38.1192 56.9629 39.6494 56.5284 41.6265 55.279C44.0825 53.7267 45.3102 53.2238 46.9626 53.093C48.9264 52.9374 50.7071 53.4843 52.8053 54.8875C54.9784 56.3408 56.8162 56.9332 59.1809 56.9425C60.5931 56.948 61.4938 56.8143 62.6222 56.4321C63.4628 56.1471 64.6781 55.5529 65.3229 55.1116C67.0745 53.912 68.5934 53.2731 70.0982 53.103C70.8397 53.019 71.5732 52.8499 71.7278 52.7269C72.1178 52.4172 72.0805 51.3149 71.6686 50.9707C71.4328 50.7736 70.862 50.7252 69.8119 50.8133C67.7751 50.9839 66.9568 51.2573 65.2441 52.3398C62.6992 53.948 61.4826 54.4362 59.7379 54.5488C57.8934 54.668 55.58 54.1274 55.58 53.5772C55.58 53.3964 56.6425 49.7179 57.9411 45.4026C59.2396 41.0876 60.2614 37.4907 60.2114 37.4096C60.1617 37.3283 58.2802 35.9887 56.0303 34.4328C53.7805 32.8766 48.581 29.2469 44.4762 26.3665L37.0128 21.1299L36.9003 37.8072L36.7878 54.4847H35.6625H34.5372L34.4247 37.778L34.3122 21.0712L23.0596 29.1236Z" fill="white"/>
</svg>
