<svg width="250" height="170" viewBox="0 0 250 170" fill="none" xmlns="http://www.w3.org/2000/svg">
<path d="M12.9982 170H237.002C244.203 169.602 250 163.714 250 156.586V13.4141C250 6.0651 243.886 0.0442708 236.368 0H13.6322C6.11413 0.0442708 0 6.0651 0 13.4141V156.542C0 163.714 5.7971 169.602 12.9982 170Z" fill="#FEFEFE"/>
<path d="M107.518 101.956V170H142.301V101.956H250V67.9557H142.301V0H107.518V67.9557H0V101.956H107.518Z" fill="#C8102E"/>
<path d="M153.895 55.0286V0H236.458C242.165 0.0885417 247.056 3.58594 249.049 8.5L153.895 55.0286Z" fill="#012169"/>
<path d="M153.895 114.971V170H237.002C242.482 169.69 247.101 166.237 249.049 161.5L153.895 114.971Z" fill="#012169"/>
<path d="M95.9239 114.971V170H12.9982C7.51814 169.69 2.85328 166.237 0.951111 161.411L95.9239 114.971Z" fill="#012169"/>
<path d="M95.9239 55.0286V0H13.5417C7.83517 0.0885417 2.89857 3.63021 0.951111 8.58854L95.9239 55.0286Z" fill="#012169"/>
<path d="M0 56.6667H34.6467L0 39.7109V56.6667Z" fill="#012169"/>
<path d="M250 56.6667H215.172L250 39.6224V56.6667Z" fill="#012169"/>
<path d="M250 113.333H215.172L250 130.378V113.333Z" fill="#012169"/>
<path d="M0 113.333H34.6467L0 130.289V113.333Z" fill="#012169"/>
<path d="M250 14.388L163.723 56.6667H183.016L250 23.9063V14.388Z" fill="#C8102E"/>
<path d="M86.096 113.333H66.8025L0 146.005V155.523L86.2772 113.333H86.096Z" fill="#C8102E"/>
<path d="M47.6449 56.711H66.9384L0 23.9505V33.4245L47.6449 56.711Z" fill="#C8102E"/>
<path d="M202.129 113.289H182.835L250 146.182V136.708L202.129 113.289Z" fill="#C8102E"/>
</svg>
