<svg width="59" height="53" viewBox="0 0 59 53" fill="none" xmlns="http://www.w3.org/2000/svg">
<path fill-rule="evenodd" clip-rule="evenodd" d="M0.349112 0.350413C0.0146627 0.686109 0 0.934377 0 6.29465V11.8886L0.459956 12.2517C1.03442 12.7053 1.75621 12.7165 2.29349 12.2802C2.69846 11.9514 2.70649 11.8846 2.75973 8.39292L2.81385 4.84008L15.4587 17.5312L28.1035 30.2223V34.7342C28.1035 38.9989 28.0859 39.2463 27.7824 39.2463C27.6057 39.2463 26.9878 39.4837 26.4095 39.7738C25.108 40.4265 23.7068 41.88 23.0756 43.2317C22.6581 44.1258 22.605 44.4475 22.605 46.0793C22.605 47.7112 22.6581 48.0329 23.0756 48.927C23.7318 50.3323 25.1138 51.7418 26.5133 52.4334C27.5858 52.9634 27.7785 53 29.5 53C31.2215 53 31.4142 52.9634 32.4867 52.4334C33.8862 51.7418 35.2682 50.3323 35.9244 48.927C36.3419 48.0329 36.395 47.7112 36.395 46.0793C36.395 44.4475 36.3419 44.1258 35.9244 43.2317C35.2932 41.88 33.892 40.4265 32.5905 39.7738C32.0122 39.4837 31.3943 39.2463 31.2176 39.2463C30.9141 39.2463 30.8965 38.9989 30.8965 34.7342V30.2223L43.5413 17.5312L56.1862 4.84008L56.2403 8.39292C56.2935 11.8846 56.3015 11.9514 56.7065 12.2802C57.2438 12.7165 57.9656 12.7053 58.54 12.2517L59 11.8886V6.29465C59 0.934377 58.9853 0.686109 58.6509 0.350413C58.3164 0.0147174 58.0691 0 52.7463 0H47.1911L46.8114 0.405428C46.4379 0.804549 46.3281 1.45159 46.5398 2.00541C46.7685 2.60357 47.3559 2.71483 50.7533 2.80331L54.1145 2.89091L42.5055 14.5416L30.8965 26.1923V15.4252V4.65804L33.4842 7.23481C35.5438 9.28578 36.1689 9.81157 36.5468 9.81157C37.215 9.81157 37.8787 9.09603 37.8787 8.37558C37.8787 7.85854 37.4812 7.4002 33.9962 3.89975C30.4143 0.301881 30.0666 0 29.5028 0C28.9393 0 28.59 0.302932 25.0066 3.89695C21.3475 7.56682 21.1213 7.83139 21.1213 8.43953C21.1213 8.92853 21.233 9.17347 21.5813 9.44837C22.4734 10.1529 22.7304 10.0083 25.5158 7.23481L28.1035 4.65804V15.4252V26.1923L16.4945 14.5416L4.88548 2.89091L8.24673 2.80208C10.0955 2.75302 11.7476 2.64527 11.9183 2.5624C12.6586 2.20287 12.7967 0.977478 12.1641 0.380899C11.7668 0.0063074 11.6677 0 6.22921 0C0.930908 0 0.683562 0.0147174 0.349112 0.350413ZM31.6982 42.4967C32.2208 42.821 32.748 43.3512 33.0739 43.8801C33.5413 44.6393 33.6021 44.892 33.6021 46.0793C33.6021 47.2667 33.5413 47.5194 33.0739 48.2785C32.7464 48.8101 32.2206 49.3378 31.691 49.6665C30.9347 50.1357 30.683 50.1967 29.5 50.1967C28.317 50.1967 28.0653 50.1357 27.309 49.6665C26.1515 48.9482 25.4417 47.7804 25.3449 46.4348C25.3044 45.8742 25.3628 45.1376 25.4746 44.7977C25.819 43.7503 26.6134 42.8291 27.6075 42.3243C28.3991 41.9226 28.7145 41.86 29.6953 41.911C30.6091 41.9583 31.0281 42.081 31.6982 42.4967Z" fill="white"/>
</svg>
