<svg width="1760" height="1101" viewBox="0 0 1760 1101" fill="none" xmlns="http://www.w3.org/2000/svg">
<path d="M136.166 89.993C144.747 94.0239 157.03 105.175 173.89 124.243C179.977 131.125 187.542 138.127 190.7 139.801C193.858 141.475 203.265 142.615 211.605 142.337C240.111 141.389 244.636 142.138 257.241 149.888C272.792 159.451 284.664 161.661 290.286 156.042C292.551 153.779 294.403 149.873 294.403 147.364C294.403 142.387 288.242 135.075 284.047 135.075C280.377 135.075 274.9 127.352 274.806 122.048C274.671 114.49 281.86 103.376 289.403 99.4778C300.931 93.52 307.881 94.9013 320.27 105.615C333.59 117.14 340.939 121.227 355.251 125.074C363.136 127.192 366.053 129.363 367.209 133.966C368.047 137.314 368.163 143.08 367.464 146.781C366.763 150.48 365.384 157.682 364.4 162.782C363.025 169.892 363.586 173.134 366.803 176.685C372.922 183.445 392.216 191.071 407.64 192.828C429.035 195.267 431.838 196.242 436.083 202.719C439.465 207.875 439.615 209.999 437.043 216.21C432.421 227.358 420.805 236.165 392.381 250.071C378.195 257.012 363.731 265.548 360.241 269.036C351.95 277.321 346.052 289.984 346.052 299.503C346.052 305.39 348.984 310.086 358.964 320.195C377.804 339.28 402.767 359.073 406.939 358.235C411.302 357.358 415.832 345.725 419.976 324.745C421.668 316.187 425.372 305.748 428.208 301.548C437.869 287.238 456.396 287.452 471.313 302.049C479.859 310.411 497.87 336.107 510.485 357.935C518.414 371.66 520.674 378.09 520.674 386.923C520.674 397.428 519.686 399.234 507.455 411.074C498.938 419.317 485.605 428.222 469.967 436.109C443.553 449.433 428.272 462.71 416.147 482.874C410.2 492.764 405.527 496.849 392.064 503.92C367.117 517.023 364.759 520.13 363.689 541.309C363.187 551.221 361.276 561.23 359.392 563.805C356.175 568.202 355.44 567.858 345.489 557.287C332.926 543.939 317.904 535.899 302.229 534.129C288.685 532.603 274.174 537.826 268.82 546.158C263.557 554.348 261.616 572.705 264.774 584.424C266.484 590.773 269.986 596.303 273.938 598.891C280.151 602.958 280.748 602.85 294.573 595.197C302.404 590.861 310.968 587.314 313.604 587.314C316.239 587.314 319.768 588.966 321.445 590.986C324.347 594.481 324.079 598.539 320.09 611.463C318.806 615.624 319.256 617.049 321.738 616.703C328.71 615.729 331.679 616.968 337.562 623.312C342.235 628.35 343.593 632.492 343.593 641.696C343.593 653.061 344.013 653.791 353.332 658.542C358.689 661.273 364.943 663.507 367.228 663.507C369.515 663.507 377.337 660.597 384.612 657.04C395.763 651.589 401.019 650.599 418.122 650.724C432.684 650.832 442.473 652.393 452.81 656.259C467.769 661.853 491.68 675.182 500.039 682.587C509.021 690.546 525.296 702.832 526.855 702.832C527.706 702.832 529.86 704.216 531.643 705.905C537.126 711.105 543.715 716.075 553.926 722.716C569.903 733.105 575.171 735.888 592.673 743.187C611.884 751.197 619.692 759.252 617.577 768.876C610.642 800.432 594.675 832.733 578.646 847.635C541.875 881.821 543.124 880.226 527.871 912.369C522.878 922.884 513.606 935.819 502.558 947.671C492.971 957.959 482.55 969.846 479.402 974.088C469.837 986.972 463.691 1003.13 462.321 1018.99C460.821 1036.37 464.345 1053.51 472.879 1070.36C479.407 1083.24 480.524 1093.44 475.912 1098.05C474.289 1099.67 469.412 1101 465.073 1101C458.747 1101 455.066 1098.64 446.504 1089.09C433.203 1074.25 421.646 1051.06 416.144 1028.16C412.964 1014.93 412.31 1005.28 413.478 988.837C414.329 976.853 415.657 946.963 416.432 922.414C417.696 882.305 417.313 875.706 412.667 857.336C406.789 834.112 398.023 819.434 376.909 797.458C358.261 778.052 351.025 762.776 350.996 742.745C350.969 726.322 357.058 709.444 365.888 701.458C368.505 699.091 370.612 695.39 370.571 693.234C370.529 691.052 357.486 680.257 341.148 668.882C315.206 650.822 301.634 643.707 254.838 623.639C248.633 620.979 240.162 615.631 236.013 611.758C229.397 605.579 210.782 577.916 210.782 574.263C210.782 573.521 206.519 566.477 201.313 558.609C196.103 550.74 188.154 537.408 183.646 528.98C179.138 520.552 175.102 514.007 174.674 514.433C174.249 514.86 176.578 523.074 179.849 532.687C185.001 547.825 185.321 550.565 182.227 553.129C178.009 556.628 177.099 555.586 160.542 528.309C154.383 518.163 147.042 503.318 144.231 495.32C137.571 476.385 137.44 451.104 143.884 427.271C146.582 417.289 150.109 401.105 151.725 391.303C153.978 377.613 153.992 369.354 151.779 355.664C150.197 345.863 146.708 331.762 144.024 324.327C136.56 303.632 110.066 254.967 102.845 248.685C89.3773 236.966 74.1901 238.517 58.4126 253.22C44.8437 265.863 21.6682 277.628 10.3276 277.628C-1.87626 277.628 -3.33227 271.941 6.32114 261.987C15.5417 252.48 16.1984 243.998 9.10525 226.014C6.39984 219.154 4.18632 209.989 4.18878 205.646C4.18878 196.982 11.7172 175.38 18.3479 165.013C22.3913 158.694 32.4554 147.162 50.9162 127.706C55.6506 122.717 64.8343 112.396 71.3248 104.774C80.3142 94.2156 85.8824 90.0447 94.6898 87.2624C107.617 83.1849 123.953 84.2589 136.166 89.993Z" fill="#69EC9D"/>
<path d="M717.705 28.4688C727.919 34.4069 734.372 46.8115 734.53 60.8039C734.66 72.3434 727.466 96.7103 719.702 111.03C712.621 124.088 707.685 150.134 707.636 174.704C707.591 196.793 703.427 213.455 695.847 221.878C693.516 224.468 681.093 235.088 668.242 245.478C624.363 280.954 594.972 302.207 589.795 302.207C583.708 302.207 576.785 295.824 570.609 284.518C567.013 277.936 566.219 271.049 566.413 248.134C566.632 222.499 567.49 217.37 575.636 192.996C580.577 178.214 584.62 164.05 584.62 161.523C584.62 152.36 574.561 135.178 564.544 127.227C558.912 122.756 550.54 115.545 545.943 111.202C538.85 104.504 537.699 101.896 538.351 94.0116C539.103 84.9275 539.792 84.3253 568.722 67.499C585.002 58.0266 603.263 46.8459 609.304 42.6504C629.085 28.9087 658.161 21.8793 690.65 22.9829C703.924 23.4351 711.792 25.0303 717.705 28.4688Z" fill="#69EC9D"/>
<path d="M491.84 158.294C507.182 170.784 522.302 192.103 528.537 210.038C531.097 217.397 532.844 229.824 532.89 241.012C532.957 256.476 532.005 261.131 527.364 268.013C524.28 272.585 519.022 277.71 515.682 279.4C502.29 286.172 485.811 280.971 477.821 267.451C474.37 261.616 473.905 256.467 475.125 237.674C476.212 220.907 475.769 213.963 473.428 211.176C468.73 205.585 456.664 197.82 446.89 194.104C434.408 189.356 422.296 177.204 422.296 169.43C422.296 162.401 429.787 154 439.514 150.124C442.894 148.777 453.029 147.605 462.036 147.518C477.857 147.369 478.868 147.735 491.84 158.294Z" fill="#69EC9D"/>
<path d="M419.937 124.105C426.6 130.129 425.963 140.639 418.387 149.632C413.289 155.688 410.116 157.195 402.458 157.195C395.241 157.195 392.017 155.838 389.317 151.665C381.215 139.147 381.427 121.842 389.71 119.438C397.834 117.081 415.121 119.75 419.937 124.105Z" fill="#69EC9D"/>
<path d="M385.898 52.4104C388.198 55.2935 389.582 60.1428 388.972 63.1831C388.362 66.2234 387.292 71.4586 386.599 74.8135C385.903 78.1685 381.914 84.8046 377.735 89.5605C365.28 103.737 353.962 100.734 340.845 79.7734C338.31 75.718 336.229 69.3596 336.224 65.6409C336.212 57.535 343.386 49.7363 352.754 47.6693C356.507 46.841 360.686 45.7964 362.039 45.3491C367.902 43.4074 382.056 47.5956 385.898 52.4104Z" fill="#69EC9D"/>
<path d="M435.37 37.049C442.837 40.866 449.229 49.3038 449.296 55.4287C449.372 62.7382 441.241 69.2343 433.208 68.2831C429.504 67.8431 424.46 64.7192 422.003 61.3397C417.217 54.7601 413.872 40.4384 416.233 36.6238C418.188 33.4631 428.816 33.699 435.37 37.049Z" fill="#69EC9D"/>
<path d="M565.009 2.49446C576.472 3.92491 586.844 6.08043 588.061 7.28476C592.026 11.2124 583.01 20.9847 558.526 39.2955C535.714 56.3552 518.264 72.6777 484.611 108.437C468.524 125.533 459.584 129.598 447.872 125.15C440.688 122.419 433.685 114.827 429.679 105.418C427.805 101.016 427.758 97.1011 429.524 92.4583C431.597 87.0093 433.137 86.0753 438.024 87.3017C446.28 89.3737 465.855 80.3363 469.252 72.8841C471.374 68.229 471.111 65.2895 468.034 59.344C462.66 48.9597 463.061 32.3595 468.917 22.7617C478.3 7.38553 495.927 0.157069 524.427 0.00222584C535.286 -0.056762 553.548 1.064 565.009 2.49446Z" fill="#69EC9D"/>
<path d="M890.438 73.6829C889.86 82.9612 872.474 110.509 863.9 115.734C859.771 118.251 855.585 120.313 854.596 120.318C851.704 120.332 842.864 101.38 842.864 95.1643C842.864 92.0331 844.68 86.8814 846.895 83.7158C852.105 76.2858 873.947 66.2677 883.446 66.9534C889.671 67.4007 890.762 68.4527 890.438 73.6829Z" fill="#69EC9D"/>
<path d="M1061.27 101.156C1062.89 102.779 1064.22 104.919 1064.22 105.915C1064.22 106.91 1059.92 110.14 1054.66 113.092C1047.96 116.855 1043.59 121.854 1040.02 129.839C1032.61 146.405 1031.31 159.341 1035.76 172.111C1037.84 178.101 1039.57 183.793 1039.58 184.759C1039.65 187.741 1030.34 191.663 1026.61 190.231C1024.66 189.486 1021.76 185.991 1020.15 182.466C1015.54 172.352 1014 146.847 1017.39 136.591C1019.04 131.589 1026.5 120.908 1033.96 112.851C1047.59 98.1457 1055.05 94.948 1061.27 101.156Z" fill="#69EC9D"/>
<path d="M1166.33 43.5574C1167.7 44.5503 1170.55 48.0552 1172.66 51.3413C1176.34 57.0705 1176.16 57.621 1168.31 64.5054C1157.19 74.2654 1152.76 72.1001 1152.76 56.9107C1152.76 50.3336 1153.5 44.2161 1154.4 43.3165C1156.56 41.1536 1163.18 41.2888 1166.33 43.5574Z" fill="#69EC9D"/>
<path d="M1139.22 30.8381C1147.14 36.0217 1149.78 45.7006 1144.68 50.8055C1139.8 55.6843 1132.56 53.8606 1117.66 43.9973C1106.28 36.4641 1103.41 30.5284 1108.63 25.308C1112.01 21.9383 1130.82 25.34 1139.22 30.8381Z" fill="#69EC9D"/>
<path d="M1570.14 405.848C1572.02 407.414 1573.23 410.936 1572.83 413.676C1572.34 416.994 1569.35 419.371 1563.89 420.777C1557.49 422.424 1556.06 423.815 1557.37 427.067C1566.41 449.32 1570.87 463.234 1570.87 469.177C1570.87 474.033 1568.55 478.219 1563.55 482.429C1559.52 485.816 1552.99 489.294 1549.04 490.161C1545.02 491.046 1537.48 496.544 1531.91 502.66C1526.44 508.666 1520.79 513.58 1519.36 513.58C1515.9 513.58 1506.92 504.481 1506.92 500.966C1506.92 498.388 1514.4 490.643 1537.28 469.558C1542.29 464.944 1547.08 458.365 1547.94 454.931C1548.81 451.5 1548.23 442.487 1546.66 434.902C1542.61 415.323 1543.04 406.151 1548.12 403.073C1553.02 400.104 1565.04 401.621 1570.14 405.848Z" fill="#69EC9D"/>
<path d="M1547.42 348.397C1552.27 355.773 1553.13 359.491 1551.98 367.917C1551.2 373.643 1549.19 379.459 1547.52 380.842C1545.25 382.725 1543.12 380.105 1539.07 370.433C1536.1 363.323 1533.01 352.125 1532.21 345.545C1530.8 333.868 1530.89 333.65 1536.09 336.434C1539.02 338 1544.12 343.385 1547.42 348.397Z" fill="#69EC9D"/>
<path d="M1488.91 636.505C1496.76 644.633 1503.95 653.206 1504.88 655.554C1507.76 662.821 1507.08 674.634 1503.5 679.53C1500.57 683.543 1499.17 683.791 1493.66 681.282C1490.13 679.675 1487.24 676.605 1487.24 674.462C1487.24 672.318 1482.15 660.762 1475.92 648.78C1469.69 636.8 1465.33 625.811 1466.23 624.361C1469.48 619.101 1474.9 622.002 1488.91 636.505Z" fill="#69EC9D"/>
<path d="M1457.55 697.019C1467.59 709.771 1461.74 739.82 1448.23 744.957C1444.77 746.269 1439.35 746.697 1436.19 745.903C1427.38 743.694 1413.62 729.539 1411.99 721.005C1410.79 714.733 1411.97 711.73 1418.62 704.159C1427.72 693.805 1433.29 690.924 1444.64 690.698C1450.27 690.587 1453.88 692.355 1457.55 697.019Z" fill="#69EC9D"/>
<path d="M1448.8 761.287C1465.61 765.357 1471.39 770.086 1464.85 774.426C1457.68 779.192 1417.62 769.788 1414.9 762.7C1411.43 753.672 1416.47 753.463 1448.8 761.287Z" fill="#69EC9D"/>
<path d="M1375.82 714.507C1388.06 726.174 1393.75 733.548 1394.99 739.358C1396.24 745.203 1395.72 748.656 1393.19 751.175C1384.52 759.842 1363.74 744.441 1351.45 720.244C1346.36 710.23 1345.36 706.003 1347.23 702.508C1348.58 699.981 1351.65 697.917 1354.05 697.917C1356.44 697.917 1366.24 705.383 1375.82 714.507Z" fill="#69EC9D"/>
<path d="M1589.97 734.924C1624.08 744.055 1646.12 761.707 1644.2 778.359C1643.55 784.058 1642.42 785.029 1637.27 784.312C1633.89 783.84 1624.79 780.797 1617.06 777.553C1609.32 774.306 1599.91 771.644 1596.15 771.634C1588.73 771.617 1584.78 769.257 1561.59 750.981C1547.41 739.81 1543.52 733.432 1548.1 728.861C1550.49 726.467 1567.69 728.956 1589.97 734.924Z" fill="#69EC9D"/>
<path d="M1555.28 794.276C1556.85 795.485 1559.46 801.971 1561.07 808.691C1562.78 815.794 1565.9 821.924 1568.53 823.327C1579.2 829.039 1593.68 813.068 1591.33 798.169C1590.31 791.742 1590.83 791.017 1595.9 791.734C1600.58 792.398 1605.38 800.005 1622.48 833.879C1641.99 872.545 1643.4 876.362 1644.24 892.947C1644.95 906.937 1643.76 915.181 1638.62 932.005C1627.29 969.14 1610.51 986.947 1588.92 984.73C1583.3 984.153 1575.25 981.23 1571.05 978.239C1566.84 975.245 1559.09 966.444 1553.81 958.68C1542.65 942.261 1529.14 929.685 1520.27 927.458C1511.11 925.162 1500.94 927.404 1475.59 937.304C1449.29 947.573 1435.62 948.635 1427.98 941.003C1423.07 936.095 1422.9 934.241 1424.47 902.292C1425.37 883.836 1427.17 865.304 1428.47 861.109C1429.76 856.913 1433.28 851.199 1436.28 848.407C1439.29 845.615 1448.62 841.031 1457.02 838.222C1478.51 831.027 1489.75 825.32 1487.99 822.482C1487.16 821.142 1487.6 820.739 1488.97 821.582C1491.14 822.922 1501.34 815.477 1517.93 800.455C1523.73 795.205 1543.52 789.001 1548.73 790.803C1550.76 791.503 1553.71 793.066 1555.28 794.276Z" fill="#69EC9D"/>
<path d="M1729.72 1028.17C1731.41 1032.59 1714.84 1063.8 1707.03 1070.89C1700.25 1077.05 1689.94 1077.97 1683.39 1073C1681.01 1071.2 1679.08 1066.51 1679.08 1062.53C1679.08 1057.27 1681.91 1052.6 1689.54 1045.24C1700.57 1034.6 1716.71 1025.1 1724.04 1024.92C1726.45 1024.86 1729.01 1026.32 1729.72 1028.17Z" fill="#69EC9D"/>
<path d="M1754.55 976.079C1762.36 983.413 1761.78 993.431 1752.77 1006.51C1743.29 1020.29 1737.37 1023.72 1732.13 1018.48C1722.34 1008.7 1732.65 970.735 1745.1 970.735C1747.17 970.735 1751.42 973.139 1754.55 976.079Z" fill="#69EC9D"/>
<path d="M1592.39 1001.67C1599.14 1003.03 1599.64 1010.07 1593.7 1020.13C1587.89 1029.97 1580.04 1029.52 1573.53 1018.99C1568.49 1010.84 1566.95 1002.51 1569.93 999.529C1571.32 998.135 1578 998.772 1592.39 1001.67Z" fill="#69EC9D"/>
<path d="M1079.33 806.737C1083.06 813.695 1080.22 830.806 1072.95 845.128C1066.79 857.292 1056.5 867.507 1050.42 867.507C1040.14 867.507 1035.24 830.209 1043.65 815.986C1048.75 807.354 1064.61 798.609 1071.78 800.482C1074.47 801.185 1077.87 803.999 1079.33 806.737Z" fill="#69EC9D"/>
<path d="M783.031 329.26C784.71 332.63 786.685 338.344 787.418 341.957C788.154 345.57 792.143 351.911 796.282 356.048C800.628 360.391 804.401 367.214 805.21 372.191C806.548 380.444 806.147 381.022 795.837 385.697C783.195 391.431 778.04 391.866 774.422 387.51C772.514 385.212 772.903 381.223 775.824 373.103L779.865 361.87L772.015 349.643C767.696 342.918 764.162 335.655 764.162 333.505C764.162 328.129 771.292 321.461 776.058 322.378C778.215 322.793 781.353 325.89 783.031 329.26Z" fill="#69EC9D"/>
<path d="M773.962 362.082C773.817 372.894 747.319 384.411 743.782 375.199C741.394 368.976 748.945 356.483 757.25 352.917C764.749 349.697 765.731 349.81 769.695 354.352C772.061 357.063 773.982 360.541 773.962 362.082Z" fill="#69EC9D"/>
<path d="M714.694 249.363C733.3 249.363 737.356 252.871 732.452 264.708C730.312 269.864 726.623 272.951 719.965 275.146C709.286 278.668 694.861 276.884 690.377 271.486C688.754 269.53 687.426 263.887 687.426 258.944C687.426 249.88 691.654 244.58 696.408 247.682C697.827 248.606 706.054 249.363 714.694 249.363Z" fill="#69EC9D"/>
<path d="M386.213 585.884C394.56 589.153 406.907 593.334 413.651 595.172C422.2 597.507 426.814 600.326 428.892 604.495C431.113 608.946 431.167 611.325 429.103 613.81C427.077 616.248 422.967 616.712 413.86 615.533C400.037 613.741 370.089 603.801 361.291 598.085C355.541 594.346 350.654 585.147 352.634 581.784C354.825 578.068 371.434 580.096 386.213 585.884Z" fill="#69EC9D"/>
<path d="M1225.96 66.6757C1241.04 70.4705 1259.86 89.0689 1263.91 104.172L1266.74 114.758L1282.87 107.213C1303.85 97.4034 1322.78 95.764 1336.18 102.597C1341.48 105.303 1347.93 109.845 1350.51 112.694C1353.09 115.54 1357.1 117.87 1359.44 117.87C1361.77 117.87 1367.79 112.861 1372.81 106.738C1377.84 100.603 1387.63 92.7163 1394.62 89.1721C1405.18 83.8165 1410.62 82.74 1426.99 82.7548C1440.24 82.7646 1454.84 84.8881 1471.71 89.2606C1485.49 92.8294 1501.53 95.7468 1507.37 95.7444C1513.3 95.7444 1521.79 93.6282 1526.6 90.9516C1554.45 75.4525 1552.14 75.8827 1599.6 77.4188C1649.16 79.0238 1654.52 80.641 1654.45 93.9624C1654.42 98.3251 1651.12 107.424 1647.11 114.183C1643.1 120.942 1639.8 128.431 1639.77 130.825C1639.75 133.221 1642.65 139.59 1646.22 144.98C1651.81 153.425 1652.51 156.485 1651.24 167.132C1649.09 185.293 1639.2 198.681 1621.82 206.971C1599.75 217.498 1598.34 227.118 1612.59 269.989C1621.48 296.733 1622.26 312.289 1615.08 319.468C1611.26 323.29 1609.04 323.872 1605.51 321.982C1602.98 320.631 1595.7 310.635 1589.32 299.768C1576.94 278.666 1577.37 281.615 1582.09 249.725C1583.43 240.717 1583.02 237.264 1580.44 235.629C1573.65 231.333 1565.32 233.565 1551.66 243.344C1543.21 249.39 1535.31 253.148 1531.55 252.915C1517.63 252.047 1513.75 253.512 1503.45 263.516C1485.79 280.671 1483.15 302.295 1497.51 312.185C1504.69 317.131 1519.9 333.509 1523.23 339.892C1527.64 348.338 1531.35 369.229 1530.1 378.507C1527.46 397.983 1523.14 408.055 1511.51 421.8C1504.86 429.665 1497.29 436.883 1494.68 437.844C1490.28 439.474 1490.21 440.103 1493.66 447.017C1498.95 457.622 1500.36 469.474 1497.27 477.506C1493.58 487.136 1487.4 485.189 1480.18 472.121C1470.29 454.191 1452.87 450.534 1445.24 464.784C1442.91 469.13 1444.21 473.306 1453.44 491.15C1459.47 502.809 1465.81 518.299 1467.53 525.569C1470.01 536.015 1470.05 541.547 1467.72 551.941C1465.38 562.434 1462.77 566.814 1454.83 573.6C1448.54 578.985 1440.4 583.07 1432.67 584.726C1407.16 590.195 1403.82 595.43 1411.04 618.666C1416.95 637.7 1415.95 649.195 1407.9 654.833C1400.72 659.862 1389.89 659.594 1385.93 654.29C1384.16 651.926 1380.78 648.47 1378.41 646.617C1374.96 643.911 1373.38 643.849 1370.42 646.302C1364.25 651.422 1365.95 664.308 1374.17 674.636C1383.45 686.308 1385.76 694.697 1381.02 699.44C1377.9 702.555 1376.6 702.333 1370.7 697.695C1361.32 690.324 1354.37 678.411 1343.6 651.218C1331.25 620.058 1321.01 602.622 1311.7 596.868C1302.54 591.215 1295.15 592.419 1284.5 601.297C1275 609.221 1266.43 623.076 1257.41 645.073C1249.73 663.804 1243.57 672.171 1235.99 674.152C1232.11 675.167 1229.12 672.311 1221.47 660.25C1216.17 651.904 1211.82 643.692 1211.81 642.001C1211.79 640.313 1210.84 638.929 1209.68 638.929C1208.52 638.929 1206.56 635.39 1205.32 631.061C1203.25 623.872 1202.11 623.137 1192.05 622.535C1170.31 621.237 1165.92 619.551 1159.25 609.931C1151.31 598.483 1148.94 587.373 1152.35 577.606C1154.86 570.385 1154.7 570.11 1147.91 570.11C1144.03 570.11 1139.39 569.544 1137.59 568.854C1134.99 567.856 1134.31 572.941 1134.31 593.513C1134.31 613.856 1133.52 619.94 1130.62 621.803C1124.16 625.961 1119.59 623.319 1118.78 614.945C1118.36 610.563 1117.41 606.977 1116.68 606.977C1115.95 606.977 1111.87 609.914 1107.61 613.503C1097.11 622.363 1076.9 631.513 1067.91 631.477C1057.58 631.435 1041.46 623.609 1035.12 615.557C1031.49 610.937 1029.78 610.01 1029.78 612.65C1029.78 614.783 1027.43 618.175 1024.56 620.185L1019.34 623.843L1024.8 632.674C1032.24 644.714 1042.54 649.704 1056.02 647.804C1061.88 646.978 1071.64 645.607 1077.7 644.759C1086.16 643.574 1089.04 644.053 1090.11 646.823C1092.54 653.157 1081.69 677.204 1065.73 700.819C1046.99 728.568 1036.08 747.073 1038.46 747.073C1039.43 747.073 1039.11 748.457 1037.75 750.145C1034.45 754.238 1032.7 763.349 1029.85 791.314C1028.54 804.156 1025.6 820.193 1023.32 826.952C1021.03 833.711 1014.78 845.878 1009.43 853.988C998.748 870.166 964.035 905.532 949.226 915.326C944.069 918.735 934.908 922.173 928.865 922.962C919.469 924.189 916.22 923.334 906.434 917.049C898.758 912.119 892.191 904.932 886.495 895.216C867.011 861.994 861.099 833.07 865.073 790.395C869.041 747.796 863.357 722.414 845.661 703.688C837.722 695.287 819.593 691.049 786.287 689.806C753.8 688.592 741.062 685.249 730.137 675.064C721.131 666.668 715.051 652.685 713.354 636.466C712.023 623.742 710.053 625.411 707.594 620.495V586.086C707.594 565.199 711.283 565.194 720.444 552.905C729.729 547.989 732.093 551.88 738.384 543.688C750.809 527.515 768.075 512.412 781.835 505.678C798.348 497.599 824.409 492.848 842.178 494.681C854.045 495.905 857.075 497.469 868.522 508.288C883.091 522.059 893.244 525.834 915.763 525.854C924.066 525.861 939.949 527.592 951.056 529.696C971.47 533.567 983.184 532.879 987.579 527.555C988.903 525.952 990.292 519.663 990.668 513.58C991.197 504.98 990.563 502.711 987.818 503.382C985.873 503.856 978.061 504.827 970.454 505.54C958.607 506.646 955.877 506.083 951.393 501.603C948.516 498.727 946.162 494.077 946.162 491.27C946.162 488.463 949.256 483.073 953.041 479.293C961.118 471.221 979.375 466.527 994.702 468.579C1012.36 470.946 1022.16 460.53 1014.95 447.066C1011.39 440.425 994.712 432.452 981.042 430.854C971.64 429.758 968.285 430.49 962.763 434.856C957.126 439.312 955.992 442.116 955.963 451.699C955.941 458.021 955.112 464.406 954.118 465.888C953.125 467.37 949.507 469.265 946.083 470.101C942.529 470.968 936.474 476.412 931.991 482.768C924.45 493.46 918.904 496.053 912.401 491.926C910.741 490.872 904.791 480.66 899.176 469.228C888.06 446.592 883.229 439.845 878.145 439.845C872.292 439.845 874.594 447.105 884.675 460.451C890.086 467.613 894.513 476.201 894.513 479.539C894.513 488.387 889.12 494.534 882.226 493.536C878.111 492.941 873.954 488.566 868.303 478.88C863.868 471.288 856.153 461.486 851.155 457.101C843.155 450.079 840.791 449.271 831.398 450.328C816.676 451.987 812.734 455.784 814.423 466.687C816.024 477.024 813.117 481.586 801.053 487.674C796.319 490.066 789.474 494.797 785.842 498.191C780.763 502.937 777.723 503.982 772.674 502.716C755.62 498.437 745.391 483.808 748.367 467.948C750.211 458.126 760.303 449.676 770.187 449.676C773.758 449.676 779.282 447.078 782.46 443.903C787.3 439.066 788.035 436.357 787.002 427.19L785.768 416.247L803.862 403.712C813.816 396.818 824.539 388.412 827.694 385.03C830.911 381.582 834.023 374.459 834.783 368.809C835.793 361.268 837.242 358.737 840.54 358.737C842.963 358.737 848.197 361.47 852.171 364.812C861.569 372.714 870.381 375.941 882.565 375.941C890.192 375.941 894.066 374.309 899.622 368.757C903.643 364.739 906.811 358.928 906.811 355.571C906.811 348.438 914.814 337.531 921.631 335.368C924.302 334.52 926.484 333.072 926.479 332.15C926.476 331.226 923.156 328.26 919.105 325.556C914.218 322.294 911.176 317.745 910.069 312.038C909.152 307.307 908.53 301.501 908.685 299.134C909.073 293.172 902.189 293.737 896.646 300.125C894.12 303.035 891.995 306.078 891.921 306.884C888.815 341.264 887.42 347.647 882.068 351.975C878.632 354.757 873.504 356.24 868.881 355.787C862.867 355.202 860.43 353.16 856.992 345.833C854.611 340.765 851.787 336.616 850.715 336.616C849.643 336.616 847.469 337.914 845.882 339.499C843.718 341.662 841.48 341.689 836.915 339.612C832.94 337.801 829.785 333.35 827.81 326.763C825.383 318.669 825.427 314.186 828.036 304.021C832.367 287.13 857.656 245.082 872.956 229.332C882.093 219.926 888.711 215.588 898.724 212.439C907.59 209.652 915.883 208.711 922.977 209.682C940.515 212.083 983.17 235.543 983.017 242.7C982.916 247.314 977.919 251.153 966.863 255.105C957.985 258.278 954.77 260.704 954.77 264.226C954.77 268.333 956.366 268.969 965.838 268.635C971.925 268.421 979.95 267.065 983.669 265.624C988.617 263.707 990.432 261.304 990.432 256.675C990.432 246.861 996.793 236.883 1005.7 232.726C1010.15 230.647 1020.86 228.273 1029.49 227.452C1045.85 225.896 1063.91 219.302 1070.87 212.339C1075.27 207.939 1076.25 197.191 1073.31 185.413C1072.06 180.412 1072.56 176.474 1074.85 173.343C1077.51 169.708 1080.88 168.823 1090.3 169.285C1096.92 169.609 1104.92 169.897 1108.06 169.926C1118.93 170.027 1124.78 161.653 1153.63 104.733C1161.05 90.1037 1179.79 71.3455 1190.88 67.4597C1203.11 63.1757 1211.32 62.9914 1225.96 66.6757Z" fill="#69EC9D"/>
</svg>
