<svg width="523" height="327" viewBox="0 0 523 327" fill="none" xmlns="http://www.w3.org/2000/svg">
<path d="M41.0233 26.7132C43.5703 27.9097 47.2159 31.2198 52.22 36.8798C54.0268 38.9226 56.2723 41.0011 57.2096 41.498C58.1469 41.9948 60.9392 42.3333 63.4146 42.2509C71.8753 41.9693 73.2185 42.1918 76.9597 44.4922C81.5755 47.3309 85.0992 47.9868 86.768 46.319C87.4403 45.6471 87.99 44.4878 87.99 43.7429C87.99 42.2655 86.1614 40.095 84.916 40.095C83.8268 40.095 82.2011 37.8027 82.1734 36.2283C82.1332 33.9848 84.267 30.6857 86.5059 29.5286C89.9274 27.7601 91.9904 28.1702 95.6674 31.3504C99.6211 34.7713 101.802 35.9846 106.05 37.1264C108.391 37.7553 109.256 38.3995 109.599 39.766C109.848 40.7597 109.883 42.4712 109.675 43.57C109.467 44.668 109.058 46.8056 108.766 48.3195C108.358 50.4301 108.524 51.3924 109.479 52.4467C111.295 54.453 117.022 56.7169 121.6 57.2385C127.95 57.9622 128.782 58.2519 130.042 60.1743C131.046 61.7049 131.091 62.3353 130.327 64.1789C128.955 67.4883 125.508 70.1023 117.071 74.2302C112.86 76.2905 108.567 78.8243 107.531 79.8596C105.071 82.319 103.32 86.0778 103.32 88.9034C103.32 90.6507 104.19 92.0449 107.153 95.0457C112.744 100.711 120.154 106.586 121.392 106.337C122.687 106.077 124.032 102.624 125.262 96.3961C125.764 93.8557 126.863 90.7572 127.705 89.5104C130.572 85.2628 136.071 85.3263 140.499 89.6592C143.036 92.1412 148.381 99.7689 152.126 106.248C154.479 110.322 155.15 112.231 155.15 114.853C155.15 117.971 154.857 118.507 151.226 122.022C148.698 124.469 144.741 127.112 140.1 129.453C132.259 133.408 127.724 137.349 124.125 143.335C122.36 146.27 120.973 147.483 116.977 149.582C109.572 153.471 108.872 154.393 108.555 160.68C108.406 163.623 107.839 166.593 107.28 167.358C106.325 168.663 106.106 168.561 103.153 165.423C99.424 161.461 94.9652 159.074 90.3129 158.549C86.2928 158.096 81.9858 159.646 80.3966 162.12C78.8344 164.551 78.2584 170 79.1957 173.478C79.7031 175.363 80.7426 177.004 81.9157 177.773C83.7597 178.98 83.9371 178.948 88.0404 176.676C90.3647 175.389 92.9066 174.336 93.6891 174.336C94.471 174.336 95.5185 174.827 96.0164 175.426C96.8778 176.464 96.7982 177.668 95.6141 181.504C95.2331 182.739 95.3667 183.163 96.1032 183.06C98.1728 182.771 99.0539 183.139 100.8 185.022C102.187 186.517 102.59 187.747 102.59 190.479C102.59 193.852 102.715 194.069 105.481 195.479C107.071 196.29 108.927 196.953 109.605 196.953C110.284 196.953 112.606 196.089 114.765 195.033C118.075 193.415 119.635 193.121 124.711 193.158C129.034 193.191 131.939 193.654 135.007 194.801C139.447 196.462 146.544 200.418 149.025 202.617C151.691 204.979 156.522 208.626 156.985 208.626C157.237 208.626 157.877 209.037 158.406 209.538C160.033 211.082 161.989 212.557 165.02 214.528C169.762 217.612 171.325 218.438 176.52 220.605C182.222 222.983 184.54 225.373 183.912 228.23C181.853 237.597 177.114 247.185 172.357 251.609C161.443 261.757 161.813 261.283 157.286 270.824C155.804 273.945 153.052 277.785 149.773 281.303C146.927 284.357 143.834 287.885 142.9 289.145C140.061 292.969 138.237 297.765 137.83 302.474C137.385 307.632 138.431 312.72 140.964 317.721C142.901 321.546 143.233 324.573 141.864 325.941C141.382 326.423 139.935 326.817 138.647 326.817C136.769 326.817 135.677 326.116 133.135 323.281C129.188 318.878 125.757 311.993 124.124 305.196C123.18 301.267 122.986 298.403 123.333 293.523C123.586 289.965 123.98 281.093 124.21 273.806C124.585 261.9 124.471 259.941 123.092 254.488C121.347 247.595 118.746 243.238 112.479 236.715C106.944 230.954 104.796 226.42 104.787 220.474C104.779 215.599 106.587 210.589 109.207 208.218C109.984 207.516 110.61 206.417 110.597 205.777C110.585 205.129 106.714 201.925 101.864 198.549C94.1644 193.188 90.1362 191.076 76.2465 185.119C74.4047 184.329 71.8906 182.742 70.6591 181.592C68.6954 179.758 63.17 171.546 63.17 170.462C63.17 170.242 61.9049 168.151 60.3595 165.816C58.8134 163.48 56.454 159.522 55.1159 157.021C53.7779 154.519 52.5799 152.576 52.4529 152.702C52.3266 152.829 53.0179 155.267 53.9888 158.121C55.5182 162.614 55.6131 163.428 54.6947 164.189C53.4428 165.228 53.1727 164.918 48.2583 156.821C46.4304 153.81 44.2514 149.403 43.417 147.029C41.4401 141.408 41.4014 133.904 43.314 126.829C44.1148 123.867 45.1617 119.062 45.6413 116.153C46.3099 112.089 46.3143 109.638 45.6573 105.574C45.1879 102.665 44.1521 98.479 43.3556 96.2721C41.1401 90.1291 33.2765 75.6835 31.1333 73.8188C27.1358 70.3402 22.628 70.8005 17.9451 75.1648C13.9177 78.9177 7.03888 82.4102 3.67285 82.4102C0.0505855 82.4102 -0.381575 80.722 2.48367 77.7672C5.22045 74.9452 5.41535 72.4275 3.31003 67.0892C2.50703 65.053 1.85003 62.3324 1.85076 61.0432C1.85076 58.4715 4.08529 52.0593 6.05337 48.9819C7.25349 47.1062 10.2407 43.6831 15.72 37.9078C17.1253 36.4267 19.8511 33.3633 21.7776 31.1009C24.4457 27.9666 26.0984 26.7285 28.7126 25.9027C32.5495 24.6923 37.3981 25.0111 41.0233 26.7132Z" fill="#69EC9D"/>
<path d="M213.631 8.45056C216.663 10.2132 218.578 13.8954 218.625 18.0488C218.664 21.4741 216.528 28.7071 214.224 32.9576C212.122 36.8338 210.657 44.5651 210.642 51.8586C210.629 58.4153 209.393 63.3611 207.144 65.8613C206.451 66.6303 202.764 69.7828 198.95 72.8667C185.926 83.3973 177.203 89.7059 175.666 89.7059C173.859 89.7059 171.804 87.8112 169.971 84.4552C168.904 82.5014 168.668 80.4571 168.726 73.6553C168.791 66.0459 169.046 64.5233 171.463 57.2881C172.93 52.9005 174.13 48.6959 174.13 47.9459C174.13 45.2261 171.144 40.1257 168.171 37.7655C166.499 36.4384 164.014 34.2978 162.65 33.0087C160.545 31.0206 160.203 30.2465 160.397 27.9061C160.62 25.2096 160.824 25.0308 169.411 20.0362C174.243 17.2244 179.663 13.9056 181.456 12.6602C187.328 8.58116 195.958 6.49458 205.601 6.82216C209.541 6.9564 211.876 7.42989 213.631 8.45056Z" fill="#69EC9D"/>
<path d="M146.592 46.9873C151.145 50.695 155.633 57.0233 157.484 62.347C158.244 64.5313 158.762 68.22 158.776 71.541C158.796 76.1315 158.513 77.5133 157.136 79.5561C156.22 80.9131 154.659 82.4343 153.668 82.9362C149.693 84.9462 144.802 83.4024 142.43 79.389C141.406 77.657 141.268 76.1286 141.63 70.5503C141.953 65.5731 141.822 63.5121 141.127 62.6848C139.732 61.025 136.151 58.7203 133.25 57.6171C129.545 56.2076 125.95 52.6006 125.95 50.293C125.95 48.2064 128.174 45.7127 131.061 44.5622C132.064 44.1624 135.072 43.8144 137.745 43.7888C142.441 43.7443 142.741 43.853 146.592 46.9873Z" fill="#69EC9D"/>
<path d="M125.25 36.8389C127.228 38.6271 127.038 41.7468 124.79 44.4163C123.277 46.2139 122.335 46.6612 120.062 46.6612C117.92 46.6612 116.963 46.2584 116.161 45.0196C113.757 41.3039 113.82 36.167 116.278 35.4535C118.689 34.7538 123.821 35.5461 125.25 36.8389Z" fill="#69EC9D"/>
<path d="M115.147 15.5573C115.829 16.4131 116.24 17.8526 116.059 18.755C115.878 19.6575 115.561 21.2115 115.355 22.2074C115.148 23.2032 113.964 25.1731 112.724 26.5848C109.027 30.793 105.668 29.9014 101.775 23.6796C101.022 22.4759 100.404 20.5885 100.403 19.4846C100.399 17.0785 102.529 14.7635 105.309 14.15C106.423 13.9041 107.664 13.594 108.065 13.4613C109.805 12.8849 114.007 14.1281 115.147 15.5573Z" fill="#69EC9D"/>
<path d="M129.831 10.9975C132.047 12.1305 133.944 14.6351 133.964 16.4532C133.987 18.623 131.573 20.5512 129.189 20.2689C128.09 20.1383 126.592 19.211 125.863 18.2079C124.443 16.2548 123.45 12.0036 124.151 10.8713C124.731 9.93306 127.885 10.0031 129.831 10.9975Z" fill="#69EC9D"/>
<path d="M168.309 0.740445C171.712 1.16506 174.79 1.80489 175.151 2.16238C176.328 3.32824 173.652 6.22902 166.385 11.6643C159.614 16.7283 154.435 21.5734 144.446 32.1879C139.671 37.2628 137.018 38.4695 133.541 37.149C131.409 36.3385 129.331 34.0848 128.141 31.292C127.585 29.9853 127.571 28.8231 128.095 27.445C128.711 25.8275 129.168 25.5503 130.618 25.9143C133.069 26.5294 138.879 23.8467 139.887 21.6347C140.517 20.2528 140.439 19.3803 139.526 17.6154C137.931 14.533 138.05 9.60548 139.788 6.7565C142.573 2.1923 147.805 0.0466237 156.264 0.000660711C159.487 -0.016849 164.907 0.315834 168.309 0.740445Z" fill="#69EC9D"/>
<path d="M264.9 21.8718C264.729 24.6259 259.568 32.8029 257.024 34.354C255.798 35.1011 254.556 35.7132 254.262 35.7147C253.404 35.7191 250.78 30.0933 250.78 28.2482C250.78 27.3188 251.319 25.7896 251.976 24.8499C253.523 22.6444 260.006 19.6706 262.825 19.8742C264.673 20.007 264.997 20.3192 264.9 21.8718Z" fill="#69EC9D"/>
<path d="M315.604 30.0269C316.086 30.5084 316.48 31.1439 316.48 31.4394C316.48 31.7349 315.204 32.6935 313.644 33.5697C311.655 34.6867 310.357 36.1707 309.298 38.541C307.099 43.4584 306.712 47.2981 308.032 51.0889C308.652 52.8669 309.163 54.5566 309.169 54.8433C309.187 55.7283 306.425 56.8927 305.317 56.4673C304.74 56.2463 303.877 55.2088 303.401 54.1626C302.032 51.1604 301.576 43.5897 302.582 40.5452C303.072 39.0605 305.285 35.8898 307.5 33.4982C311.544 29.1332 313.76 28.184 315.604 30.0269Z" fill="#69EC9D"/>
<path d="M346.787 12.9294C347.196 13.2242 348.042 14.2645 348.669 15.24C349.76 16.9406 349.706 17.104 347.377 19.1475C344.075 22.0447 342.76 21.4019 342.76 16.8932C342.76 14.9408 342.979 13.1249 343.247 12.8579C343.889 12.2159 345.854 12.256 346.787 12.9294Z" fill="#69EC9D"/>
<path d="M338.742 9.15387C341.093 10.6925 341.877 13.5656 340.361 15.0809C338.913 16.5291 336.765 15.9878 332.343 13.06C328.964 10.8239 328.113 9.06194 329.664 7.51233C330.665 6.51209 336.25 7.52182 338.742 9.15387Z" fill="#69EC9D"/>
<path d="M466.643 120.471C467.202 120.935 467.562 121.981 467.443 122.794C467.298 123.779 466.41 124.485 464.789 124.902C462.891 125.391 462.464 125.804 462.855 126.769C465.537 133.374 466.86 137.505 466.86 139.269C466.86 140.71 466.174 141.953 464.688 143.203C463.493 144.208 461.555 145.24 460.382 145.498C459.188 145.76 456.949 147.392 455.297 149.208C453.673 150.991 451.998 152.449 451.572 152.449C450.544 152.449 447.88 149.748 447.88 148.705C447.88 147.94 450.101 145.641 456.892 139.382C458.377 138.012 459.801 136.059 460.056 135.04C460.313 134.022 460.141 131.346 459.676 129.095C458.475 123.283 458.599 120.56 460.108 119.647C461.562 118.766 465.13 119.216 466.643 120.471Z" fill="#69EC9D"/>
<path d="M459.899 103.417C461.339 105.606 461.597 106.71 461.254 109.211C461.021 110.911 460.426 112.637 459.93 113.048C459.256 113.607 458.626 112.829 457.423 109.958C456.54 107.847 455.623 104.524 455.387 102.57C454.967 99.1043 454.994 99.0393 456.539 99.8659C457.409 100.331 458.921 101.929 459.899 103.417Z" fill="#69EC9D"/>
<path d="M442.534 188.938C444.865 191.351 446.999 193.895 447.275 194.592C448.13 196.749 447.928 200.256 446.865 201.709C445.994 202.9 445.581 202.974 443.945 202.229C442.897 201.752 442.04 200.841 442.04 200.205C442.04 199.569 440.527 196.138 438.679 192.581C436.831 189.025 435.536 185.764 435.802 185.333C436.767 183.772 438.375 184.633 442.534 188.938Z" fill="#69EC9D"/>
<path d="M433.227 206.901C436.207 210.686 434.471 219.605 430.459 221.13C429.432 221.52 427.824 221.647 426.885 221.411C424.27 220.755 420.187 216.554 419.703 214.021C419.347 212.159 419.698 211.267 421.672 209.02C424.373 205.946 426.025 205.091 429.394 205.024C431.065 204.991 432.138 205.516 433.227 206.901Z" fill="#69EC9D"/>
<path d="M430.628 225.978C435.618 227.186 437.334 228.589 435.394 229.878C433.264 231.292 421.374 228.501 420.566 226.397C419.538 223.717 421.033 223.655 430.628 225.978Z" fill="#69EC9D"/>
<path d="M408.967 212.092C412.601 215.555 414.29 217.744 414.658 219.468C415.029 221.203 414.873 222.228 414.125 222.976C411.551 225.549 405.381 220.977 401.734 213.794C400.224 210.822 399.926 209.567 400.482 208.53C400.883 207.78 401.794 207.167 402.505 207.167C403.216 207.167 406.125 209.383 408.967 212.092Z" fill="#69EC9D"/>
<path d="M472.531 218.152C482.654 220.863 489.196 226.102 488.627 231.045C488.433 232.737 488.098 233.025 486.57 232.812C485.566 232.672 482.866 231.769 480.569 230.806C478.273 229.842 475.481 229.052 474.364 229.049C472.162 229.044 470.99 228.344 464.106 222.918C459.899 219.603 458.745 217.709 460.103 216.352C460.813 215.642 465.918 216.381 472.531 218.152Z" fill="#69EC9D"/>
<path d="M462.233 235.77C462.7 236.129 463.474 238.054 463.952 240.049C464.458 242.157 465.385 243.977 466.165 244.393C469.334 246.089 473.631 241.348 472.933 236.926C472.632 235.018 472.785 234.802 474.289 235.016C475.679 235.212 477.103 237.47 482.178 247.525C487.972 259.003 488.389 260.136 488.637 265.059C488.848 269.212 488.496 271.659 486.971 276.653C483.608 287.676 478.625 292.962 472.219 292.304C470.549 292.132 468.162 291.265 466.914 290.377C465.666 289.488 463.363 286.876 461.797 284.571C458.485 279.697 454.475 275.964 451.842 275.303C449.125 274.622 446.105 275.287 438.58 278.226C430.775 281.274 426.716 281.589 424.449 279.324C422.991 277.867 422.942 277.317 423.407 267.833C423.676 262.355 424.21 256.854 424.594 255.608C424.978 254.363 426.022 252.667 426.914 251.838C427.806 251.009 430.575 249.649 433.068 248.815C439.449 246.679 442.782 244.985 442.261 244.142C442.015 243.745 442.146 243.625 442.552 243.875C443.195 244.273 446.224 242.063 451.148 237.604C452.87 236.046 458.744 234.204 460.29 234.739C460.892 234.947 461.767 235.411 462.233 235.77Z" fill="#69EC9D"/>
<path d="M514.009 305.2C514.512 306.509 509.592 315.775 507.275 317.88C505.264 319.707 502.202 319.981 500.258 318.506C499.552 317.97 498.98 316.579 498.98 315.398C498.98 313.837 499.819 312.45 502.083 310.266C505.358 307.108 510.148 304.286 512.325 304.232C513.041 304.215 513.798 304.649 514.009 305.2Z" fill="#69EC9D"/>
<path d="M521.381 289.736C523.699 291.913 523.525 294.886 520.852 298.768C518.037 302.858 516.281 303.877 514.725 302.323C511.82 299.418 514.879 288.15 518.574 288.15C519.188 288.15 520.452 288.863 521.381 289.736Z" fill="#69EC9D"/>
<path d="M473.248 297.331C475.253 297.735 475.402 299.826 473.637 302.811C471.912 305.731 469.584 305.599 467.65 302.472C466.153 300.053 465.696 297.581 466.581 296.696C466.995 296.283 468.977 296.472 473.248 297.331Z" fill="#69EC9D"/>
<path d="M320.967 239.469C322.073 241.534 321.229 246.613 319.074 250.865C317.243 254.475 314.19 257.507 312.385 257.507C309.335 257.507 307.879 246.436 310.375 242.214C311.889 239.652 316.598 237.056 318.724 237.612C319.523 237.821 320.532 238.656 320.967 239.469Z" fill="#69EC9D"/>
<path d="M233.021 97.7363C233.519 98.7366 234.105 100.433 234.323 101.505C234.541 102.578 235.725 104.46 236.954 105.688C238.244 106.977 239.364 109.002 239.604 110.48C240.001 112.93 239.882 113.101 236.822 114.489C233.07 116.191 231.539 116.32 230.466 115.027C229.899 114.345 230.014 113.161 230.882 110.75L232.081 107.416L229.751 103.787C228.469 101.791 227.42 99.6347 227.42 98.9963C227.42 97.4007 229.536 95.4214 230.951 95.6935C231.591 95.8168 232.523 96.7361 233.021 97.7363Z" fill="#69EC9D"/>
<path d="M230.329 107.479C230.286 110.688 222.421 114.107 221.371 111.373C220.662 109.525 222.904 105.817 225.369 104.758C227.594 103.803 227.886 103.836 229.063 105.185C229.765 105.989 230.335 107.022 230.329 107.479Z" fill="#69EC9D"/>
<path d="M212.738 74.0201C218.26 74.0201 219.464 75.0612 218.008 78.5748C217.373 80.1055 216.278 81.0218 214.302 81.6733C211.132 82.7188 206.851 82.1891 205.52 80.587C205.038 80.0063 204.644 78.3312 204.644 76.864C204.644 74.1733 205.899 72.6004 207.31 73.5211C207.731 73.7954 210.173 74.0201 212.738 74.0201Z" fill="#69EC9D"/>
<path d="M115.24 173.912C117.718 174.882 121.382 176.123 123.384 176.669C125.922 177.362 127.291 178.199 127.908 179.436C128.567 180.757 128.583 181.463 127.971 182.201C127.369 182.925 126.149 183.063 123.446 182.712C119.344 182.181 110.454 179.23 107.843 177.533C106.136 176.424 104.686 173.693 105.274 172.695C105.924 171.592 110.854 172.194 115.24 173.912Z" fill="#69EC9D"/>
<path d="M364.488 19.7918C368.964 20.9182 374.55 26.4389 375.75 30.9221L376.591 34.0644L381.38 31.8246C387.607 28.9129 393.226 28.4262 397.203 30.4545C398.777 31.2577 400.691 32.606 401.456 33.4515C402.221 34.2964 403.413 34.988 404.106 34.988C404.798 34.988 406.583 33.5011 408.073 31.6838C409.567 29.8628 412.474 27.5216 414.549 26.4695C417.683 24.8798 419.295 24.5602 424.155 24.5646C428.089 24.5675 432.421 25.1979 437.429 26.4958C441.518 27.5551 446.281 28.4211 448.014 28.4204C449.774 28.4204 452.293 27.7922 453.72 26.9977C461.988 22.3971 461.303 22.5247 475.389 22.9807C490.098 23.4571 491.689 23.9372 491.668 27.8915C491.661 29.1865 490.681 31.8873 489.49 33.8937C488.299 35.9 487.319 38.123 487.312 38.8336C487.306 39.5449 488.167 41.4352 489.226 43.0352C490.886 45.542 491.092 46.4503 490.717 49.6108C490.078 55.0016 487.143 58.9756 481.983 61.4365C475.432 64.5612 475.013 67.4168 479.244 80.1427C481.883 88.0812 482.116 92.6986 479.983 94.8297C478.848 95.9642 478.191 96.1371 477.143 95.5761C476.392 95.1748 474.23 92.2076 472.339 88.9822C468.664 82.7181 468.79 83.5936 470.192 74.1274C470.588 71.4535 470.468 70.4284 469.701 69.9433C467.686 68.668 465.214 69.3304 461.158 72.2334C458.65 74.0281 456.307 75.1437 455.192 75.0744C451.059 74.8168 449.907 75.2516 446.85 78.221C441.607 83.3134 440.825 89.7322 445.088 92.668C447.219 94.1359 451.731 98.9977 452.72 100.892C454.029 103.399 455.132 109.601 454.759 112.355C453.978 118.136 452.694 121.126 449.242 125.205C447.268 127.54 445.021 129.683 444.248 129.968C442.941 130.452 442.92 130.639 443.945 132.691C445.516 135.839 445.932 139.357 445.017 141.741C443.919 144.6 442.086 144.022 439.944 140.143C437.007 134.82 431.838 133.735 429.572 137.965C428.882 139.255 429.267 140.494 432.005 145.791C433.795 149.252 435.677 153.85 436.19 156.008C436.925 159.109 436.937 160.751 436.246 163.836C435.549 166.951 434.775 168.251 432.42 170.265C430.552 171.864 428.137 173.076 425.843 173.568C418.27 175.191 417.28 176.745 419.422 183.643C421.177 189.292 420.88 192.705 418.489 194.378C416.357 195.871 413.145 195.792 411.969 194.217C411.444 193.515 410.44 192.489 409.738 191.939C408.713 191.136 408.243 191.118 407.365 191.846C405.533 193.366 406.039 197.191 408.477 200.257C411.231 203.721 411.919 206.211 410.511 207.619C409.586 208.544 409.199 208.478 407.447 207.101C404.664 204.913 402.602 201.377 399.404 193.305C395.738 184.056 392.701 178.88 389.936 177.172C387.218 175.494 385.025 175.852 381.864 178.487C379.043 180.839 376.498 184.952 373.822 191.481C371.544 197.041 369.715 199.525 367.465 200.113C366.312 200.414 365.427 199.566 363.154 195.986C361.581 193.509 360.291 191.071 360.287 190.569C360.283 190.068 359.999 189.657 359.656 189.657C359.312 189.657 358.729 188.607 358.361 187.322C357.748 185.188 357.409 184.97 354.423 184.791C347.97 184.406 346.667 183.905 344.687 181.05C342.331 177.651 341.626 174.354 342.638 171.454C343.386 169.311 343.337 169.229 341.322 169.229C340.171 169.229 338.792 169.061 338.257 168.856C337.486 168.56 337.285 170.07 337.285 176.176C337.285 182.215 337.049 184.021 336.19 184.574C334.271 185.808 332.917 185.024 332.677 182.538C332.55 181.237 332.269 180.173 332.052 180.173C331.834 180.173 330.623 181.045 329.36 182.11C326.244 184.74 320.245 187.456 317.575 187.445C314.51 187.433 309.726 185.11 307.845 182.72C306.766 181.348 306.26 181.073 306.26 181.857C306.26 182.49 305.562 183.497 304.71 184.094L303.159 185.179L304.78 187.801C306.99 191.375 310.046 192.856 314.046 192.292C315.786 192.047 318.682 191.64 320.482 191.388C322.994 191.036 323.849 191.178 324.165 192.001C324.887 193.881 321.665 201.019 316.93 208.029C311.366 216.265 308.128 221.758 308.835 221.758C309.123 221.758 309.028 222.169 308.624 222.67C307.645 223.885 307.126 226.59 306.28 234.891C305.891 238.703 305.018 243.463 304.34 245.47C303.663 247.476 301.808 251.087 300.218 253.495C297.048 258.297 286.745 268.795 282.35 271.702C280.819 272.714 278.1 273.735 276.306 273.969C273.517 274.333 272.553 274.079 269.648 272.213C267.37 270.75 265.421 268.617 263.73 265.733C257.947 255.871 256.192 247.285 257.372 234.618C258.549 221.973 256.862 214.439 251.61 208.88C249.254 206.386 243.873 205.129 233.987 204.759C224.345 204.399 220.564 203.407 217.321 200.383C214.648 197.891 212.843 193.741 212.34 188.926C211.945 185.149 211.36 185.645 210.63 184.185V173.971C210.63 167.772 211.725 167.77 214.444 164.122C217.2 162.663 217.902 163.818 219.769 161.386C223.457 156.586 228.581 152.103 232.666 150.104C237.567 147.705 245.302 146.295 250.576 146.839C254.099 147.203 254.998 147.667 258.395 150.878C262.72 154.966 265.733 156.087 272.417 156.093C274.882 156.095 279.596 156.608 282.893 157.233C288.952 158.382 292.429 158.178 293.733 156.597C294.126 156.122 294.538 154.255 294.65 152.449C294.807 149.896 294.619 149.223 293.804 149.422C293.227 149.563 290.908 149.851 288.65 150.063C285.134 150.391 284.324 150.224 282.993 148.894C282.139 148.04 281.44 146.66 281.44 145.827C281.44 144.994 282.358 143.394 283.482 142.272C285.879 139.876 291.298 138.482 295.847 139.091C301.087 139.794 303.996 136.702 301.856 132.705C300.8 130.734 295.85 128.367 291.793 127.893C289.002 127.568 288.006 127.785 286.368 129.081C284.694 130.404 284.358 131.236 284.349 134.081C284.342 135.957 284.096 137.853 283.802 138.292C283.507 138.732 282.433 139.295 281.417 139.543C280.362 139.801 278.565 141.417 277.234 143.303C274.996 146.477 273.349 147.247 271.419 146.022C270.927 145.709 269.161 142.677 267.494 139.284C264.194 132.565 262.761 130.562 261.252 130.562C259.514 130.562 260.198 132.717 263.19 136.679C264.796 138.805 266.11 141.354 266.11 142.345C266.11 144.971 264.509 146.796 262.463 146.499C261.242 146.323 260.008 145.024 258.33 142.149C257.014 139.895 254.724 136.986 253.241 135.684C250.866 133.6 250.165 133.36 247.377 133.674C243.007 134.166 241.837 135.293 242.338 138.53C242.814 141.598 241.951 142.952 238.37 144.759C236.965 145.469 234.933 146.874 233.855 147.881C232.348 149.29 231.445 149.6 229.947 149.224C224.885 147.954 221.849 143.612 222.732 138.904C223.279 135.988 226.275 133.48 229.209 133.48C230.269 133.48 231.908 132.709 232.851 131.766C234.288 130.331 234.506 129.527 234.2 126.805L233.833 123.557L239.204 119.837C242.158 117.79 245.341 115.295 246.277 114.291C247.232 113.267 248.156 111.153 248.381 109.476C248.681 107.238 249.111 106.486 250.09 106.486C250.809 106.486 252.363 107.297 253.542 108.29C256.332 110.635 258.947 111.593 262.564 111.593C264.827 111.593 265.977 111.109 267.626 109.461C268.82 108.268 269.76 106.543 269.76 105.546C269.76 103.429 272.135 100.191 274.159 99.5493C274.952 99.2976 275.599 98.8679 275.598 98.5943C275.597 98.32 274.612 97.4394 273.409 96.6369C271.959 95.6687 271.056 94.3183 270.727 92.6242C270.455 91.2198 270.27 89.4965 270.316 88.794C270.432 87.024 268.388 87.1918 266.743 89.088C265.993 89.9518 265.363 90.855 265.341 91.0943C264.419 101.3 264.005 103.194 262.416 104.479C261.396 105.305 259.874 105.745 258.502 105.611C256.717 105.437 255.994 104.831 254.973 102.656C254.266 101.151 253.428 99.9199 253.11 99.9199C252.792 99.9199 252.147 100.305 251.676 100.776C251.033 101.418 250.369 101.426 249.014 100.809C247.834 100.272 246.898 98.9503 246.312 96.9951C245.591 94.5926 245.604 93.2619 246.379 90.2443C247.664 85.2307 255.17 72.7492 259.712 68.0741C262.423 65.282 264.388 63.9943 267.36 63.0598C269.991 62.2324 272.453 61.953 274.558 62.2412C279.764 62.954 292.424 69.9177 292.379 72.0423C292.349 73.4117 290.866 74.5512 287.584 75.7244C284.949 76.6663 283.995 77.3864 283.995 78.4318C283.995 79.651 284.469 79.8399 287.28 79.7407C289.087 79.6772 291.469 79.2745 292.573 78.847C294.041 78.2779 294.58 77.5644 294.58 76.1906C294.58 73.2774 296.468 70.3154 299.11 69.0816C300.433 68.4644 303.612 67.7597 306.173 67.516C311.028 67.0542 316.388 65.0967 318.456 63.0298C319.762 61.7239 320.05 58.5335 319.178 55.0374C318.807 53.5527 318.957 52.3839 319.637 51.4545C320.427 50.3754 321.426 50.1128 324.221 50.2499C326.187 50.3462 328.56 50.4316 329.494 50.4403C332.719 50.4703 334.456 47.9846 343.02 31.0885C345.22 26.746 350.785 21.1779 354.075 20.0245C357.705 18.7528 360.143 18.6981 364.488 19.7918Z" fill="#69EC9D"/>
<path fill-rule="evenodd" clip-rule="evenodd" d="M457.186 240.067C456.614 240.165 455.666 240.467 455.181 240.706C453.546 241.513 452.23 242.893 451.551 244.513C451.174 245.414 450.999 246.304 451 247.311C451.002 248.95 451.401 250.544 452.29 252.466C453.355 254.77 455.267 257.569 457.577 260.209C457.847 260.517 458.119 260.812 458.182 260.866C458.372 261.027 458.534 261.042 458.739 260.918C459.115 260.69 461.251 258.068 462.342 256.494C463.234 255.209 463.864 254.162 464.452 252.99C465.237 251.425 465.723 249.989 465.913 248.677C466.017 247.955 466.03 246.771 465.94 246.22C465.739 244.993 465.317 243.99 464.579 242.987C463.942 242.122 462.825 241.198 461.817 240.706C461.355 240.48 460.664 240.244 460.1 240.119C459.501 239.987 457.834 239.957 457.186 240.067Z" fill="#FC4141"/>
<path fill-rule="evenodd" clip-rule="evenodd" d="M272.186 173.067C271.614 173.165 270.666 173.467 270.181 173.706C268.546 174.513 267.23 175.893 266.551 177.513C266.174 178.414 265.999 179.304 266 180.311C266.002 181.95 266.401 183.544 267.29 185.466C268.355 187.77 270.267 190.569 272.577 193.209C272.847 193.517 273.119 193.812 273.182 193.866C273.372 194.027 273.534 194.042 273.739 193.918C274.115 193.69 276.251 191.068 277.342 189.494C278.234 188.209 278.864 187.162 279.452 185.99C280.237 184.425 280.723 182.989 280.913 181.677C281.017 180.955 281.03 179.771 280.94 179.22C280.739 177.993 280.317 176.99 279.579 175.987C278.942 175.122 277.825 174.198 276.817 173.706C276.355 173.48 275.664 173.244 275.1 173.119C274.501 172.987 272.834 172.957 272.186 173.067Z" fill="#FC4141"/>
<path fill-rule="evenodd" clip-rule="evenodd" d="M143.186 219.067C142.614 219.165 141.666 219.467 141.181 219.706C139.546 220.513 138.23 221.893 137.551 223.513C137.174 224.414 136.999 225.304 137 226.311C137.002 227.95 137.401 229.544 138.29 231.466C139.355 233.77 141.267 236.569 143.577 239.209C143.847 239.517 144.119 239.812 144.182 239.866C144.372 240.027 144.534 240.042 144.739 239.918C145.115 239.69 147.251 237.068 148.342 235.494C149.234 234.209 149.864 233.162 150.452 231.99C151.237 230.425 151.723 228.989 151.913 227.677C152.017 226.955 152.03 225.771 151.94 225.22C151.739 223.993 151.317 222.99 150.579 221.987C149.942 221.122 148.825 220.198 147.817 219.706C147.355 219.48 146.664 219.244 146.1 219.119C145.501 218.987 143.834 218.957 143.186 219.067Z" fill="#FC4141"/>
<path fill-rule="evenodd" clip-rule="evenodd" d="M85.1864 98.8531C84.6137 98.9505 83.6662 99.2522 83.1811 99.4916C81.5464 100.298 80.2304 101.679 79.5515 103.298C79.174 104.199 78.9985 105.089 79 106.096C79.0024 107.736 79.4013 109.33 80.2899 111.252C81.355 113.555 83.2668 116.355 85.5773 118.994C85.8467 119.302 86.1189 119.598 86.1821 119.651C86.3717 119.812 86.5341 119.827 86.7389 119.703C87.1147 119.475 89.2508 116.853 90.3424 115.28C91.2337 113.995 91.8645 112.947 92.4518 111.776C93.2366 110.211 93.7231 108.774 93.9126 107.463C94.017 106.741 94.0301 105.556 93.9399 105.005C93.7391 103.779 93.3166 102.776 92.5787 101.773C91.942 100.907 90.8245 99.984 89.8174 99.4916C89.3552 99.2656 88.6638 99.0294 88.1002 98.905C87.501 98.7728 85.8335 98.7431 85.1864 98.8531Z" fill="#FC4141"/>
<path fill-rule="evenodd" clip-rule="evenodd" d="M390.186 95.0675C389.614 95.1649 388.666 95.4666 388.181 95.7059C386.546 96.5126 385.23 97.8929 384.551 99.5128C384.174 100.414 383.999 101.304 384 102.311C384.002 103.95 384.401 105.544 385.29 107.466C386.355 109.77 388.267 112.569 390.577 115.209C390.847 115.517 391.119 115.812 391.182 115.866C391.372 116.027 391.534 116.042 391.739 115.918C392.115 115.69 394.251 113.068 395.342 111.494C396.234 110.209 396.864 109.162 397.452 107.99C398.237 106.425 398.723 104.989 398.913 103.677C399.017 102.955 399.03 101.771 398.94 101.22C398.739 99.9935 398.317 98.9901 397.579 97.9871C396.942 97.1215 395.825 96.1984 394.817 95.7059C394.355 95.48 393.664 95.2438 393.1 95.1194C392.501 94.9871 390.834 94.9574 390.186 95.0675Z" fill="#FC4141"/>
<path fill-rule="evenodd" clip-rule="evenodd" d="M284.186 87.0675C283.614 87.1649 282.666 87.4666 282.181 87.7059C280.546 88.5126 279.23 89.8929 278.551 91.5128C278.174 92.4136 277.999 93.3037 278 94.3107C278.002 95.95 278.401 97.5443 279.29 99.4662C280.355 101.77 282.267 104.569 284.577 107.209C284.847 107.517 285.119 107.812 285.182 107.866C285.372 108.027 285.534 108.042 285.739 107.918C286.115 107.69 288.251 105.068 289.342 103.494C290.234 102.209 290.864 101.162 291.452 99.9903C292.237 98.4251 292.723 96.9887 292.913 95.6774C293.017 94.9555 293.03 93.7706 292.94 93.2195C292.739 91.9935 292.317 90.9901 291.579 89.9871C290.942 89.1215 289.825 88.1984 288.817 87.7059C288.355 87.48 287.664 87.2438 287.1 87.1194C286.501 86.9871 284.834 86.9574 284.186 87.0675Z" fill="#FC4141"/>
</svg>
