<svg width="53" height="36" viewBox="0 0 53 36" fill="none" xmlns="http://www.w3.org/2000/svg">
<path fill-rule="evenodd" clip-rule="evenodd" d="M1.9498 0.438195C1.49333 0.679315 0.867782 1.23415 0.559859 1.67141L0 2.46625V15.9645V29.4627L0.56807 30.2719C0.880658 30.717 1.5105 31.2897 1.96772 31.5445C2.72502 31.9666 3.04171 32.0142 5.51592 32.0773L8.23254 32.1465L8.66942 32.9701C9.21435 33.9973 10.3301 35.0198 11.4428 35.5121C11.911 35.7193 12.8092 35.93 13.4387 35.9805C15.6789 36.1603 17.7919 35.0846 18.9699 33.1648L19.5951 32.1458L22.7676 32.0743C25.5591 32.0116 26.0297 31.9554 26.6866 31.6068C27.5495 31.1488 28.0865 30.6022 28.5776 29.6814C28.9081 29.0618 28.9261 28.3623 28.9261 16.0527V3.07745L28.4492 2.15085C28.1607 1.59005 27.6574 1.00292 27.1737 0.662892L26.3748 0.101337L14.5772 0.0505746L2.77989 0L1.9498 0.438195ZM32.5508 8.5784L32.0053 9.12391V19.9211C32.0053 29.601 32.0368 30.7631 32.3097 31.1526C32.6932 31.7003 33.6505 32.1068 34.5653 32.1101C35.2172 32.1127 35.3099 32.1833 35.7799 33.0354C36.4332 34.2203 37.9008 35.38 39.2394 35.7691C40.5282 36.1437 42.232 36.0392 43.4234 35.5121C44.5346 35.0206 45.6517 33.9975 46.1945 32.9742L46.6292 32.1549L48.3226 32.0663C50.6542 31.9442 51.747 31.3584 52.5973 29.7747C52.9731 29.0747 52.9981 28.7671 52.9991 24.8291L53 20.6301L51.1459 15.4316C50.094 12.4822 49.0718 9.92938 48.7833 9.53112C48.5036 9.14481 47.9047 8.64988 47.4525 8.43097C46.6596 8.04708 46.3894 8.0329 39.8633 8.0329H33.0963L32.5508 8.5784ZM14.8055 28.2658C15.4596 28.604 15.8479 29.335 15.8239 30.1829C15.7977 31.1029 14.9514 31.9493 14.0314 31.9754C13.6635 31.9858 13.1412 31.8757 12.8706 31.7309C12.3257 31.4394 11.8504 30.6582 11.8504 30.0546C11.8504 29.4412 12.3654 28.598 12.9258 28.2938C13.5764 27.9409 14.1603 27.9322 14.8055 28.2658ZM42.026 28.3668C42.4226 28.6087 42.6954 28.9743 42.8406 29.4589C43.0229 30.0679 43.008 30.2948 42.749 30.8405C42.395 31.5868 41.7754 31.983 40.963 31.983C40.1507 31.983 39.5311 31.5868 39.1771 30.8405C38.918 30.2948 38.9031 30.0679 39.0854 29.4589C39.3262 28.6559 40.1678 28.0031 40.963 28.0031C41.2196 28.0031 41.6979 28.1667 42.026 28.3668Z" fill="white"/>
</svg>
