<svg width="23" height="71" viewBox="0 0 23 71" fill="none" xmlns="http://www.w3.org/2000/svg">
<path fill-rule="evenodd" clip-rule="evenodd" d="M8.1009 0.409763C7.34825 0.669228 6.26858 1.16514 5.70163 1.51168C4.26999 2.3869 2.0965 4.83293 1.3033 6.46103C-0.0268535 9.19104 -0.00262093 8.75918 0.000498111 29.8419C0.00241752 42.0923 0.0938282 49.7667 0.246182 50.4552C0.682128 52.4276 1.73397 54.3112 3.34651 56.0068C4.27959 56.9881 5.46674 57.9334 6.28993 58.3505L7.66951 59.0498L7.66999 63.5866C7.67023 67.4068 7.73645 68.2612 8.08986 68.9943C8.32043 69.4732 8.8761 70.1208 9.32452 70.433C9.93034 70.8551 10.4848 71.0008 11.4839 71C13.0628 70.999 14.1509 70.417 14.8685 69.1893C15.2992 68.4526 15.3455 67.9224 15.3462 63.706L15.3472 59.0383L16.8467 58.2945C17.6716 57.8854 18.8153 57.0725 19.3885 56.4877C20.5466 55.3062 21.7429 53.4452 22.4435 51.735C22.884 50.6599 22.908 49.6946 22.9718 30.3483C23.0366 10.7163 23.0236 10.0362 22.5601 8.44467C21.9732 6.42925 20.5752 4.12284 19.1649 2.84278C18.5826 2.31434 17.3076 1.4814 16.3313 0.991745C14.6982 0.172817 14.3531 0.0950027 12.0127 0.0199406C10.0076 -0.0446129 9.17913 0.0379552 8.1009 0.409763ZM15.0756 4.82742C16.7087 5.75444 18.0749 7.37278 18.7037 9.12549C19.1886 10.4766 19.1961 10.8464 19.1315 30.1797L19.066 49.8585L18.4276 51.1195C17.6814 52.5937 15.9307 54.3632 14.6782 54.9089C13.481 55.4306 9.53566 55.4306 8.33842 54.9089C7.07377 54.3577 5.32687 52.5832 4.60805 51.1195C4.13707 50.1605 3.96264 49.3643 3.87963 47.7943L3.77046 45.7301H4.60805C5.09198 45.7301 5.71243 45.5111 6.0776 45.2114C6.56537 44.8116 6.7098 44.4723 6.7098 43.7284C6.7098 42.9845 6.56537 42.6453 6.0776 42.2454C5.72251 41.9539 5.0915 41.7267 4.63804 41.7267H3.83068V39.7251V37.7234H4.68122C6.42621 37.7234 7.36025 35.6004 6.1882 34.2991C5.8192 33.8895 5.39789 33.7201 4.74864 33.7201H3.83068V31.7185C3.83068 29.7398 3.83764 29.7168 4.4425 29.7168C5.2249 29.7168 6.36815 29.103 6.56081 28.5796C6.848 27.7992 6.70573 26.7101 6.25538 26.2404C6.00538 25.9797 5.35758 25.6882 4.81582 25.5929L3.83068 25.4192V23.4396V21.46H4.79039C6.00778 21.46 6.7098 20.7836 6.7098 19.6112C6.7098 18.4172 6.07088 17.7041 4.84797 17.5329L3.83068 17.3908V13.9302C3.83068 11.0776 3.91538 10.2337 4.31246 9.12674C5.11189 6.89864 6.82617 5.15469 9.08076 4.27597C9.62779 4.06279 10.6597 3.96771 11.8711 4.01875C13.4489 4.08531 14.0235 4.23018 15.0756 4.82742ZM10.1779 32.0825L9.58892 32.6965V41.8518V51.0072L10.1779 51.6212C10.5491 52.0085 11.041 52.2355 11.5083 52.2355C11.9757 52.2355 12.4676 52.0085 12.8387 51.6212L13.4277 51.0072V41.8518V32.6965L12.8387 32.0825C12.4676 31.6952 11.9757 31.4682 11.5083 31.4682C11.041 31.4682 10.5491 31.6952 10.1779 32.0825Z" fill="white"/>
</svg>
